<?xml version="1.0" encoding="utf-8" standalone="no"?>
<!DOCTYPE svg PUBLIC "-//W3C//DTD SVG 1.1//EN"
  "http://www.w3.org/Graphics/SVG/1.1/DTD/svg11.dtd">
<svg xmlns:xlink="http://www.w3.org/1999/xlink" width="499.432685pt" height="329.701992pt" viewBox="0 0 499.432685 329.701992" xmlns="http://www.w3.org/2000/svg" version="1.1">
 <metadata>
  <rdf:RDF xmlns:dc="http://purl.org/dc/elements/1.1/" xmlns:cc="http://creativecommons.org/ns#" xmlns:rdf="http://www.w3.org/1999/02/22-rdf-syntax-ns#">
   <cc:Work>
    <dc:type rdf:resource="http://purl.org/dc/dcmitype/StillImage"/>
    <dc:date>2025-06-02T11:14:07.632433</dc:date>
    <dc:format>image/svg+xml</dc:format>
    <dc:creator>
     <cc:Agent>
      <dc:title>Matplotlib v3.9.2, https://matplotlib.org/</dc:title>
     </cc:Agent>
    </dc:creator>
   </cc:Work>
  </rdf:RDF>
 </metadata>
 <defs>
  <style type="text/css">*{stroke-linejoin: round; stroke-linecap: butt}</style>
 </defs>
 <g id="figure_1">
  <g id="patch_1">
   <path d="M -0 329.701992 
L 499.432685 329.701992 
L 499.432685 0 
L -0 0 
z
" style="fill: #ffffff"/>
  </g>
  <g id="axes_1">
   <g id="patch_2">
    <path d="M 92.303685 267.782017 
L 192.067321 267.782017 
L 192.067321 49.902817 
L 92.303685 49.902817 
z
" style="fill: #ffffff"/>
   </g>
   <g id="patch_3">
    <path d="M 92.303685 262.335037 
L 100.949866 262.335037 
L 100.949866 245.994097 
L 92.303685 245.994097 
z
" clip-path="url(#p5032843753)" style="fill: #88ccee; opacity: 0.7"/>
   </g>
   <g id="patch_4">
    <path d="M 92.303685 235.100137 
L 104.275321 235.100137 
L 104.275321 218.759197 
L 92.303685 218.759197 
z
" clip-path="url(#p5032843753)" style="fill: #88ccee; opacity: 0.7"/>
   </g>
   <g id="patch_5">
    <path d="M 92.303685 207.865237 
L 113.1432 207.865237 
L 113.1432 191.524297 
L 92.303685 191.524297 
z
" clip-path="url(#p5032843753)" style="fill: #88ccee; opacity: 0.7"/>
   </g>
   <g id="patch_6">
    <path d="M 92.303685 180.630337 
L 115.138473 180.630337 
L 115.138473 164.289397 
L 92.303685 164.289397 
z
" clip-path="url(#p5032843753)" style="fill: #88ccee; opacity: 0.7"/>
   </g>
   <g id="patch_7">
    <path d="M 92.303685 153.395437 
L 117.798836 153.395437 
L 117.798836 137.054497 
L 92.303685 137.054497 
z
" clip-path="url(#p5032843753)" style="fill: #88ccee; opacity: 0.7"/>
   </g>
   <g id="patch_8">
    <path d="M 92.303685 126.160537 
L 119.129018 126.160537 
L 119.129018 109.819597 
L 92.303685 109.819597 
z
" clip-path="url(#p5032843753)" style="fill: #88ccee; opacity: 0.7"/>
   </g>
   <g id="patch_9">
    <path d="M 92.303685 98.925637 
L 122.454473 98.925637 
L 122.454473 82.584697 
L 92.303685 82.584697 
z
" clip-path="url(#p5032843753)" style="fill: #88ccee; opacity: 0.7"/>
   </g>
   <g id="patch_10">
    <path d="M 92.303685 71.690737 
L 165.241988 71.690737 
L 165.241988 55.349797 
L 92.303685 55.349797 
z
" clip-path="url(#p5032843753)" style="fill: #88ccee; opacity: 0.7"/>
   </g>
   <g id="matplotlib.axis_1">
    <g id="xtick_1">
     <g id="line2d_1">
      <path d="M 92.303685 267.782017 
L 92.303685 49.902817 
" clip-path="url(#p5032843753)" style="fill: none; stroke-dasharray: 2.96,1.28; stroke-dashoffset: 0; stroke: #b0b0b0; stroke-opacity: 0.3; stroke-width: 0.8"/>
     </g>
     <g id="line2d_2">
      <defs>
       <path id="m7129419656" d="M 0 0 
L 0 2 
" style="stroke: #000000; stroke-width: 0.8"/>
      </defs>
      <g>
       <use xlink:href="#m7129419656" x="92.303685" y="267.782017" style="stroke: #000000; stroke-width: 0.8"/>
      </g>
     </g>
     <g id="text_1">
      <!-- 0 -->
      <g transform="translate(90.357357 276.792486) scale(0.07 -0.07)">
       <defs>
        <path id="ArialMT-30" d="M 266 2259 
Q 266 3072 433 3567 
Q 600 4063 929 4331 
Q 1259 4600 1759 4600 
Q 2128 4600 2406 4451 
Q 2684 4303 2865 4023 
Q 3047 3744 3150 3342 
Q 3253 2941 3253 2259 
Q 3253 1453 3087 958 
Q 2922 463 2592 192 
Q 2263 -78 1759 -78 
Q 1097 -78 719 397 
Q 266 969 266 2259 
z
M 844 2259 
Q 844 1131 1108 757 
Q 1372 384 1759 384 
Q 2147 384 2411 759 
Q 2675 1134 2675 2259 
Q 2675 3391 2411 3762 
Q 2147 4134 1753 4134 
Q 1366 4134 1134 3806 
Q 844 3388 844 2259 
z
" transform="scale(0.015625)"/>
       </defs>
       <use xlink:href="#ArialMT-30"/>
      </g>
     </g>
    </g>
    <g id="xtick_2">
     <g id="line2d_3">
      <path d="M 136.643079 267.782017 
L 136.643079 49.902817 
" clip-path="url(#p5032843753)" style="fill: none; stroke-dasharray: 2.96,1.28; stroke-dashoffset: 0; stroke: #b0b0b0; stroke-opacity: 0.3; stroke-width: 0.8"/>
     </g>
     <g id="line2d_4">
      <g>
       <use xlink:href="#m7129419656" x="136.643079" y="267.782017" style="stroke: #000000; stroke-width: 0.8"/>
      </g>
     </g>
     <g id="text_2">
      <!-- 20 -->
      <g transform="translate(132.750422 276.792486) scale(0.07 -0.07)">
       <defs>
        <path id="ArialMT-32" d="M 3222 541 
L 3222 0 
L 194 0 
Q 188 203 259 391 
Q 375 700 629 1000 
Q 884 1300 1366 1694 
Q 2113 2306 2375 2664 
Q 2638 3022 2638 3341 
Q 2638 3675 2398 3904 
Q 2159 4134 1775 4134 
Q 1369 4134 1125 3890 
Q 881 3647 878 3216 
L 300 3275 
Q 359 3922 746 4261 
Q 1134 4600 1788 4600 
Q 2447 4600 2831 4234 
Q 3216 3869 3216 3328 
Q 3216 3053 3103 2787 
Q 2991 2522 2730 2228 
Q 2469 1934 1863 1422 
Q 1356 997 1212 845 
Q 1069 694 975 541 
L 3222 541 
z
" transform="scale(0.015625)"/>
       </defs>
       <use xlink:href="#ArialMT-32"/>
       <use xlink:href="#ArialMT-30" x="55.615234"/>
      </g>
     </g>
    </g>
    <g id="xtick_3">
     <g id="line2d_5">
      <path d="M 180.982473 267.782017 
L 180.982473 49.902817 
" clip-path="url(#p5032843753)" style="fill: none; stroke-dasharray: 2.96,1.28; stroke-dashoffset: 0; stroke: #b0b0b0; stroke-opacity: 0.3; stroke-width: 0.8"/>
     </g>
     <g id="line2d_6">
      <g>
       <use xlink:href="#m7129419656" x="180.982473" y="267.782017" style="stroke: #000000; stroke-width: 0.8"/>
      </g>
     </g>
     <g id="text_3">
      <!-- 40 -->
      <g transform="translate(177.089816 276.792486) scale(0.07 -0.07)">
       <defs>
        <path id="ArialMT-34" d="M 2069 0 
L 2069 1097 
L 81 1097 
L 81 1613 
L 2172 4581 
L 2631 4581 
L 2631 1613 
L 3250 1613 
L 3250 1097 
L 2631 1097 
L 2631 0 
L 2069 0 
z
M 2069 1613 
L 2069 3678 
L 634 1613 
L 2069 1613 
z
" transform="scale(0.015625)"/>
       </defs>
       <use xlink:href="#ArialMT-34"/>
       <use xlink:href="#ArialMT-30" x="55.615234"/>
      </g>
     </g>
    </g>
    <g id="text_4">
     <!-- Percentage -->
     <g transform="translate(121.728003 288.909986) scale(0.08 -0.08)">
      <defs>
       <path id="ArialMT-50" d="M 494 0 
L 494 4581 
L 2222 4581 
Q 2678 4581 2919 4538 
Q 3256 4481 3484 4323 
Q 3713 4166 3852 3881 
Q 3991 3597 3991 3256 
Q 3991 2672 3619 2267 
Q 3247 1863 2275 1863 
L 1100 1863 
L 1100 0 
L 494 0 
z
M 1100 2403 
L 2284 2403 
Q 2872 2403 3119 2622 
Q 3366 2841 3366 3238 
Q 3366 3525 3220 3729 
Q 3075 3934 2838 4000 
Q 2684 4041 2272 4041 
L 1100 4041 
L 1100 2403 
z
" transform="scale(0.015625)"/>
       <path id="ArialMT-65" d="M 2694 1069 
L 3275 997 
Q 3138 488 2766 206 
Q 2394 -75 1816 -75 
Q 1088 -75 661 373 
Q 234 822 234 1631 
Q 234 2469 665 2931 
Q 1097 3394 1784 3394 
Q 2450 3394 2872 2941 
Q 3294 2488 3294 1666 
Q 3294 1616 3291 1516 
L 816 1516 
Q 847 969 1125 678 
Q 1403 388 1819 388 
Q 2128 388 2347 550 
Q 2566 713 2694 1069 
z
M 847 1978 
L 2700 1978 
Q 2663 2397 2488 2606 
Q 2219 2931 1791 2931 
Q 1403 2931 1139 2672 
Q 875 2413 847 1978 
z
" transform="scale(0.015625)"/>
       <path id="ArialMT-72" d="M 416 0 
L 416 3319 
L 922 3319 
L 922 2816 
Q 1116 3169 1280 3281 
Q 1444 3394 1641 3394 
Q 1925 3394 2219 3213 
L 2025 2691 
Q 1819 2813 1613 2813 
Q 1428 2813 1281 2702 
Q 1134 2591 1072 2394 
Q 978 2094 978 1738 
L 978 0 
L 416 0 
z
" transform="scale(0.015625)"/>
       <path id="ArialMT-63" d="M 2588 1216 
L 3141 1144 
Q 3050 572 2676 248 
Q 2303 -75 1759 -75 
Q 1078 -75 664 370 
Q 250 816 250 1647 
Q 250 2184 428 2587 
Q 606 2991 970 3192 
Q 1334 3394 1763 3394 
Q 2303 3394 2647 3120 
Q 2991 2847 3088 2344 
L 2541 2259 
Q 2463 2594 2264 2762 
Q 2066 2931 1784 2931 
Q 1359 2931 1093 2626 
Q 828 2322 828 1663 
Q 828 994 1084 691 
Q 1341 388 1753 388 
Q 2084 388 2306 591 
Q 2528 794 2588 1216 
z
" transform="scale(0.015625)"/>
       <path id="ArialMT-6e" d="M 422 0 
L 422 3319 
L 928 3319 
L 928 2847 
Q 1294 3394 1984 3394 
Q 2284 3394 2536 3286 
Q 2788 3178 2913 3003 
Q 3038 2828 3088 2588 
Q 3119 2431 3119 2041 
L 3119 0 
L 2556 0 
L 2556 2019 
Q 2556 2363 2490 2533 
Q 2425 2703 2258 2804 
Q 2091 2906 1866 2906 
Q 1506 2906 1245 2678 
Q 984 2450 984 1813 
L 984 0 
L 422 0 
z
" transform="scale(0.015625)"/>
       <path id="ArialMT-74" d="M 1650 503 
L 1731 6 
Q 1494 -44 1306 -44 
Q 1000 -44 831 53 
Q 663 150 594 308 
Q 525 466 525 972 
L 525 2881 
L 113 2881 
L 113 3319 
L 525 3319 
L 525 4141 
L 1084 4478 
L 1084 3319 
L 1650 3319 
L 1650 2881 
L 1084 2881 
L 1084 941 
Q 1084 700 1114 631 
Q 1144 563 1211 522 
Q 1278 481 1403 481 
Q 1497 481 1650 503 
z
" transform="scale(0.015625)"/>
       <path id="ArialMT-61" d="M 2588 409 
Q 2275 144 1986 34 
Q 1697 -75 1366 -75 
Q 819 -75 525 192 
Q 231 459 231 875 
Q 231 1119 342 1320 
Q 453 1522 633 1644 
Q 813 1766 1038 1828 
Q 1203 1872 1538 1913 
Q 2219 1994 2541 2106 
Q 2544 2222 2544 2253 
Q 2544 2597 2384 2738 
Q 2169 2928 1744 2928 
Q 1347 2928 1158 2789 
Q 969 2650 878 2297 
L 328 2372 
Q 403 2725 575 2942 
Q 747 3159 1072 3276 
Q 1397 3394 1825 3394 
Q 2250 3394 2515 3294 
Q 2781 3194 2906 3042 
Q 3031 2891 3081 2659 
Q 3109 2516 3109 2141 
L 3109 1391 
Q 3109 606 3145 398 
Q 3181 191 3288 0 
L 2700 0 
Q 2613 175 2588 409 
z
M 2541 1666 
Q 2234 1541 1622 1453 
Q 1275 1403 1131 1340 
Q 988 1278 909 1158 
Q 831 1038 831 891 
Q 831 666 1001 516 
Q 1172 366 1500 366 
Q 1825 366 2078 508 
Q 2331 650 2450 897 
Q 2541 1088 2541 1459 
L 2541 1666 
z
" transform="scale(0.015625)"/>
       <path id="ArialMT-67" d="M 319 -275 
L 866 -356 
Q 900 -609 1056 -725 
Q 1266 -881 1628 -881 
Q 2019 -881 2231 -725 
Q 2444 -569 2519 -288 
Q 2563 -116 2559 434 
Q 2191 0 1641 0 
Q 956 0 581 494 
Q 206 988 206 1678 
Q 206 2153 378 2554 
Q 550 2956 876 3175 
Q 1203 3394 1644 3394 
Q 2231 3394 2613 2919 
L 2613 3319 
L 3131 3319 
L 3131 450 
Q 3131 -325 2973 -648 
Q 2816 -972 2473 -1159 
Q 2131 -1347 1631 -1347 
Q 1038 -1347 672 -1080 
Q 306 -813 319 -275 
z
M 784 1719 
Q 784 1066 1043 766 
Q 1303 466 1694 466 
Q 2081 466 2343 764 
Q 2606 1063 2606 1700 
Q 2606 2309 2336 2618 
Q 2066 2928 1684 2928 
Q 1309 2928 1046 2623 
Q 784 2319 784 1719 
z
" transform="scale(0.015625)"/>
      </defs>
      <use xlink:href="#ArialMT-50"/>
      <use xlink:href="#ArialMT-65" x="66.699219"/>
      <use xlink:href="#ArialMT-72" x="122.314453"/>
      <use xlink:href="#ArialMT-63" x="155.615234"/>
      <use xlink:href="#ArialMT-65" x="205.615234"/>
      <use xlink:href="#ArialMT-6e" x="261.230469"/>
      <use xlink:href="#ArialMT-74" x="316.845703"/>
      <use xlink:href="#ArialMT-61" x="344.628906"/>
      <use xlink:href="#ArialMT-67" x="400.244141"/>
      <use xlink:href="#ArialMT-65" x="455.859375"/>
     </g>
    </g>
   </g>
   <g id="matplotlib.axis_2"/>
   <g id="line2d_7">
    <path d="M 92.303685 254.164567 
L 192.067321 254.164567 
" clip-path="url(#p5032843753)" style="fill: none; stroke-dasharray: 1.85,0.8; stroke-dashoffset: 0; stroke: #808080; stroke-opacity: 0.2; stroke-width: 0.5"/>
   </g>
   <g id="line2d_8">
    <path d="M 92.303685 226.929667 
L 192.067321 226.929667 
" clip-path="url(#p5032843753)" style="fill: none; stroke-dasharray: 1.85,0.8; stroke-dashoffset: 0; stroke: #808080; stroke-opacity: 0.2; stroke-width: 0.5"/>
   </g>
   <g id="line2d_9">
    <path d="M 92.303685 199.694767 
L 192.067321 199.694767 
" clip-path="url(#p5032843753)" style="fill: none; stroke-dasharray: 1.85,0.8; stroke-dashoffset: 0; stroke: #808080; stroke-opacity: 0.2; stroke-width: 0.5"/>
   </g>
   <g id="line2d_10">
    <path d="M 92.303685 172.459867 
L 192.067321 172.459867 
" clip-path="url(#p5032843753)" style="fill: none; stroke-dasharray: 1.85,0.8; stroke-dashoffset: 0; stroke: #808080; stroke-opacity: 0.2; stroke-width: 0.5"/>
   </g>
   <g id="line2d_11">
    <path d="M 92.303685 145.224967 
L 192.067321 145.224967 
" clip-path="url(#p5032843753)" style="fill: none; stroke-dasharray: 1.85,0.8; stroke-dashoffset: 0; stroke: #808080; stroke-opacity: 0.2; stroke-width: 0.5"/>
   </g>
   <g id="line2d_12">
    <path d="M 92.303685 117.990067 
L 192.067321 117.990067 
" clip-path="url(#p5032843753)" style="fill: none; stroke-dasharray: 1.85,0.8; stroke-dashoffset: 0; stroke: #808080; stroke-opacity: 0.2; stroke-width: 0.5"/>
   </g>
   <g id="line2d_13">
    <path d="M 92.303685 90.755167 
L 192.067321 90.755167 
" clip-path="url(#p5032843753)" style="fill: none; stroke-dasharray: 1.85,0.8; stroke-dashoffset: 0; stroke: #808080; stroke-opacity: 0.2; stroke-width: 0.5"/>
   </g>
   <g id="line2d_14">
    <path d="M 92.303685 63.520267 
L 192.067321 63.520267 
" clip-path="url(#p5032843753)" style="fill: none; stroke-dasharray: 1.85,0.8; stroke-dashoffset: 0; stroke: #808080; stroke-opacity: 0.2; stroke-width: 0.5"/>
   </g>
   <g id="text_5">
    <!-- e -->
    <g transform="translate(80.332048 17.220937) scale(0.14 -0.14)">
     <defs>
      <path id="Arial-BoldMT-65" d="M 2381 1056 
L 3256 909 
Q 3088 428 2723 176 
Q 2359 -75 1813 -75 
Q 947 -75 531 491 
Q 203 944 203 1634 
Q 203 2459 634 2926 
Q 1066 3394 1725 3394 
Q 2466 3394 2894 2905 
Q 3322 2416 3303 1406 
L 1103 1406 
Q 1113 1016 1316 798 
Q 1519 581 1822 581 
Q 2028 581 2168 693 
Q 2309 806 2381 1056 
z
M 2431 1944 
Q 2422 2325 2234 2523 
Q 2047 2722 1778 2722 
Q 1491 2722 1303 2513 
Q 1116 2303 1119 1944 
L 2431 1944 
z
" transform="scale(0.015625)"/>
     </defs>
     <use xlink:href="#Arial-BoldMT-65"/>
    </g>
   </g>
   <g id="text_6">
    <!-- 3.9% -->
    <g transform="translate(101.614957 255.715661) scale(0.06 -0.06)">
     <defs>
      <path id="ArialMT-33" d="M 269 1209 
L 831 1284 
Q 928 806 1161 595 
Q 1394 384 1728 384 
Q 2125 384 2398 659 
Q 2672 934 2672 1341 
Q 2672 1728 2419 1979 
Q 2166 2231 1775 2231 
Q 1616 2231 1378 2169 
L 1441 2663 
Q 1497 2656 1531 2656 
Q 1891 2656 2178 2843 
Q 2466 3031 2466 3422 
Q 2466 3731 2256 3934 
Q 2047 4138 1716 4138 
Q 1388 4138 1169 3931 
Q 950 3725 888 3313 
L 325 3413 
Q 428 3978 793 4289 
Q 1159 4600 1703 4600 
Q 2078 4600 2393 4439 
Q 2709 4278 2876 4000 
Q 3044 3722 3044 3409 
Q 3044 3113 2884 2869 
Q 2725 2625 2413 2481 
Q 2819 2388 3044 2092 
Q 3269 1797 3269 1353 
Q 3269 753 2831 336 
Q 2394 -81 1725 -81 
Q 1122 -81 723 278 
Q 325 638 269 1209 
z
" transform="scale(0.015625)"/>
      <path id="ArialMT-2e" d="M 581 0 
L 581 641 
L 1222 641 
L 1222 0 
L 581 0 
z
" transform="scale(0.015625)"/>
      <path id="ArialMT-39" d="M 350 1059 
L 891 1109 
Q 959 728 1153 556 
Q 1347 384 1650 384 
Q 1909 384 2104 503 
Q 2300 622 2425 820 
Q 2550 1019 2634 1356 
Q 2719 1694 2719 2044 
Q 2719 2081 2716 2156 
Q 2547 1888 2255 1720 
Q 1963 1553 1622 1553 
Q 1053 1553 659 1965 
Q 266 2378 266 3053 
Q 266 3750 677 4175 
Q 1088 4600 1706 4600 
Q 2153 4600 2523 4359 
Q 2894 4119 3086 3673 
Q 3278 3228 3278 2384 
Q 3278 1506 3087 986 
Q 2897 466 2520 194 
Q 2144 -78 1638 -78 
Q 1100 -78 759 220 
Q 419 519 350 1059 
z
M 2653 3081 
Q 2653 3566 2395 3850 
Q 2138 4134 1775 4134 
Q 1400 4134 1122 3828 
Q 844 3522 844 3034 
Q 844 2597 1108 2323 
Q 1372 2050 1759 2050 
Q 2150 2050 2401 2323 
Q 2653 2597 2653 3081 
z
" transform="scale(0.015625)"/>
      <path id="ArialMT-25" d="M 372 3481 
Q 372 3972 619 4315 
Q 866 4659 1334 4659 
Q 1766 4659 2048 4351 
Q 2331 4044 2331 3447 
Q 2331 2866 2045 2552 
Q 1759 2238 1341 2238 
Q 925 2238 648 2547 
Q 372 2856 372 3481 
z
M 1350 4272 
Q 1141 4272 1002 4090 
Q 863 3909 863 3425 
Q 863 2984 1003 2804 
Q 1144 2625 1350 2625 
Q 1563 2625 1702 2806 
Q 1841 2988 1841 3469 
Q 1841 3913 1700 4092 
Q 1559 4272 1350 4272 
z
M 1353 -169 
L 3859 4659 
L 4316 4659 
L 1819 -169 
L 1353 -169 
z
M 3334 1075 
Q 3334 1569 3581 1911 
Q 3828 2253 4300 2253 
Q 4731 2253 5014 1945 
Q 5297 1638 5297 1041 
Q 5297 459 5011 145 
Q 4725 -169 4303 -169 
Q 3888 -169 3611 142 
Q 3334 453 3334 1075 
z
M 4316 1866 
Q 4103 1866 3964 1684 
Q 3825 1503 3825 1019 
Q 3825 581 3965 400 
Q 4106 219 4313 219 
Q 4528 219 4667 400 
Q 4806 581 4806 1063 
Q 4806 1506 4665 1686 
Q 4525 1866 4316 1866 
z
" transform="scale(0.015625)"/>
     </defs>
     <use xlink:href="#ArialMT-33"/>
     <use xlink:href="#ArialMT-2e" x="55.615234"/>
     <use xlink:href="#ArialMT-39" x="83.398438"/>
     <use xlink:href="#ArialMT-25" x="139.013672"/>
    </g>
   </g>
   <g id="text_7">
    <!-- Sentiment Adjustments -->
    <g transform="translate(20.048281 255.975817) scale(0.07 -0.07)">
     <defs>
      <path id="ArialMT-53" d="M 288 1472 
L 859 1522 
Q 900 1178 1048 958 
Q 1197 738 1509 602 
Q 1822 466 2213 466 
Q 2559 466 2825 569 
Q 3091 672 3220 851 
Q 3350 1031 3350 1244 
Q 3350 1459 3225 1620 
Q 3100 1781 2813 1891 
Q 2628 1963 1997 2114 
Q 1366 2266 1113 2400 
Q 784 2572 623 2826 
Q 463 3081 463 3397 
Q 463 3744 659 4045 
Q 856 4347 1234 4503 
Q 1613 4659 2075 4659 
Q 2584 4659 2973 4495 
Q 3363 4331 3572 4012 
Q 3781 3694 3797 3291 
L 3216 3247 
Q 3169 3681 2898 3903 
Q 2628 4125 2100 4125 
Q 1550 4125 1298 3923 
Q 1047 3722 1047 3438 
Q 1047 3191 1225 3031 
Q 1400 2872 2139 2705 
Q 2878 2538 3153 2413 
Q 3553 2228 3743 1945 
Q 3934 1663 3934 1294 
Q 3934 928 3725 604 
Q 3516 281 3123 101 
Q 2731 -78 2241 -78 
Q 1619 -78 1198 103 
Q 778 284 539 648 
Q 300 1013 288 1472 
z
" transform="scale(0.015625)"/>
      <path id="ArialMT-69" d="M 425 3934 
L 425 4581 
L 988 4581 
L 988 3934 
L 425 3934 
z
M 425 0 
L 425 3319 
L 988 3319 
L 988 0 
L 425 0 
z
" transform="scale(0.015625)"/>
      <path id="ArialMT-6d" d="M 422 0 
L 422 3319 
L 925 3319 
L 925 2853 
Q 1081 3097 1340 3245 
Q 1600 3394 1931 3394 
Q 2300 3394 2536 3241 
Q 2772 3088 2869 2813 
Q 3263 3394 3894 3394 
Q 4388 3394 4653 3120 
Q 4919 2847 4919 2278 
L 4919 0 
L 4359 0 
L 4359 2091 
Q 4359 2428 4304 2576 
Q 4250 2725 4106 2815 
Q 3963 2906 3769 2906 
Q 3419 2906 3187 2673 
Q 2956 2441 2956 1928 
L 2956 0 
L 2394 0 
L 2394 2156 
Q 2394 2531 2256 2718 
Q 2119 2906 1806 2906 
Q 1569 2906 1367 2781 
Q 1166 2656 1075 2415 
Q 984 2175 984 1722 
L 984 0 
L 422 0 
z
" transform="scale(0.015625)"/>
      <path id="ArialMT-20" transform="scale(0.015625)"/>
      <path id="ArialMT-41" d="M -9 0 
L 1750 4581 
L 2403 4581 
L 4278 0 
L 3588 0 
L 3053 1388 
L 1138 1388 
L 634 0 
L -9 0 
z
M 1313 1881 
L 2866 1881 
L 2388 3150 
Q 2169 3728 2063 4100 
Q 1975 3659 1816 3225 
L 1313 1881 
z
" transform="scale(0.015625)"/>
      <path id="ArialMT-64" d="M 2575 0 
L 2575 419 
Q 2259 -75 1647 -75 
Q 1250 -75 917 144 
Q 584 363 401 755 
Q 219 1147 219 1656 
Q 219 2153 384 2558 
Q 550 2963 881 3178 
Q 1213 3394 1622 3394 
Q 1922 3394 2156 3267 
Q 2391 3141 2538 2938 
L 2538 4581 
L 3097 4581 
L 3097 0 
L 2575 0 
z
M 797 1656 
Q 797 1019 1065 703 
Q 1334 388 1700 388 
Q 2069 388 2326 689 
Q 2584 991 2584 1609 
Q 2584 2291 2321 2609 
Q 2059 2928 1675 2928 
Q 1300 2928 1048 2622 
Q 797 2316 797 1656 
z
" transform="scale(0.015625)"/>
      <path id="ArialMT-6a" d="M 419 3928 
L 419 4581 
L 981 4581 
L 981 3928 
L 419 3928 
z
M -294 -1288 
L -188 -809 
Q -19 -853 78 -853 
Q 250 -853 334 -739 
Q 419 -625 419 -169 
L 419 3319 
L 981 3319 
L 981 -181 
Q 981 -794 822 -1034 
Q 619 -1347 147 -1347 
Q -81 -1347 -294 -1288 
z
" transform="scale(0.015625)"/>
      <path id="ArialMT-75" d="M 2597 0 
L 2597 488 
Q 2209 -75 1544 -75 
Q 1250 -75 995 37 
Q 741 150 617 320 
Q 494 491 444 738 
Q 409 903 409 1263 
L 409 3319 
L 972 3319 
L 972 1478 
Q 972 1038 1006 884 
Q 1059 663 1231 536 
Q 1403 409 1656 409 
Q 1909 409 2131 539 
Q 2353 669 2445 892 
Q 2538 1116 2538 1541 
L 2538 3319 
L 3100 3319 
L 3100 0 
L 2597 0 
z
" transform="scale(0.015625)"/>
      <path id="ArialMT-73" d="M 197 991 
L 753 1078 
Q 800 744 1014 566 
Q 1228 388 1613 388 
Q 2000 388 2187 545 
Q 2375 703 2375 916 
Q 2375 1106 2209 1216 
Q 2094 1291 1634 1406 
Q 1016 1563 777 1677 
Q 538 1791 414 1992 
Q 291 2194 291 2438 
Q 291 2659 392 2848 
Q 494 3038 669 3163 
Q 800 3259 1026 3326 
Q 1253 3394 1513 3394 
Q 1903 3394 2198 3281 
Q 2494 3169 2634 2976 
Q 2775 2784 2828 2463 
L 2278 2388 
Q 2241 2644 2061 2787 
Q 1881 2931 1553 2931 
Q 1166 2931 1000 2803 
Q 834 2675 834 2503 
Q 834 2394 903 2306 
Q 972 2216 1119 2156 
Q 1203 2125 1616 2013 
Q 2213 1853 2448 1751 
Q 2684 1650 2818 1456 
Q 2953 1263 2953 975 
Q 2953 694 2789 445 
Q 2625 197 2315 61 
Q 2006 -75 1616 -75 
Q 969 -75 630 194 
Q 291 463 197 991 
z
" transform="scale(0.015625)"/>
     </defs>
     <use xlink:href="#ArialMT-53"/>
     <use xlink:href="#ArialMT-65" x="66.699219"/>
     <use xlink:href="#ArialMT-6e" x="122.314453"/>
     <use xlink:href="#ArialMT-74" x="177.929688"/>
     <use xlink:href="#ArialMT-69" x="205.712891"/>
     <use xlink:href="#ArialMT-6d" x="227.929688"/>
     <use xlink:href="#ArialMT-65" x="311.230469"/>
     <use xlink:href="#ArialMT-6e" x="366.845703"/>
     <use xlink:href="#ArialMT-74" x="422.460938"/>
     <use xlink:href="#ArialMT-20" x="450.244141"/>
     <use xlink:href="#ArialMT-41" x="472.527344"/>
     <use xlink:href="#ArialMT-64" x="539.226562"/>
     <use xlink:href="#ArialMT-6a" x="594.841797"/>
     <use xlink:href="#ArialMT-75" x="617.058594"/>
     <use xlink:href="#ArialMT-73" x="672.673828"/>
     <use xlink:href="#ArialMT-74" x="722.673828"/>
     <use xlink:href="#ArialMT-6d" x="750.457031"/>
     <use xlink:href="#ArialMT-65" x="833.757812"/>
     <use xlink:href="#ArialMT-6e" x="889.373047"/>
     <use xlink:href="#ArialMT-74" x="944.988281"/>
     <use xlink:href="#ArialMT-73" x="972.771484"/>
    </g>
   </g>
   <g id="text_8">
    <!-- 5.4% -->
    <g transform="translate(104.940412 228.480761) scale(0.06 -0.06)">
     <defs>
      <path id="ArialMT-35" d="M 266 1200 
L 856 1250 
Q 922 819 1161 601 
Q 1400 384 1738 384 
Q 2144 384 2425 690 
Q 2706 997 2706 1503 
Q 2706 1984 2436 2262 
Q 2166 2541 1728 2541 
Q 1456 2541 1237 2417 
Q 1019 2294 894 2097 
L 366 2166 
L 809 4519 
L 3088 4519 
L 3088 3981 
L 1259 3981 
L 1013 2750 
Q 1425 3038 1878 3038 
Q 2478 3038 2890 2622 
Q 3303 2206 3303 1553 
Q 3303 931 2941 478 
Q 2500 -78 1738 -78 
Q 1113 -78 717 272 
Q 322 622 266 1200 
z
" transform="scale(0.015625)"/>
     </defs>
     <use xlink:href="#ArialMT-35"/>
     <use xlink:href="#ArialMT-2e" x="55.615234"/>
     <use xlink:href="#ArialMT-34" x="83.398438"/>
     <use xlink:href="#ArialMT-25" x="139.013672"/>
    </g>
   </g>
   <g id="text_9">
    <!-- Stylistic Adjustments -->
    <g transform="translate(27.839063 228.740917) scale(0.07 -0.07)">
     <defs>
      <path id="ArialMT-79" d="M 397 -1278 
L 334 -750 
Q 519 -800 656 -800 
Q 844 -800 956 -737 
Q 1069 -675 1141 -563 
Q 1194 -478 1313 -144 
Q 1328 -97 1363 -6 
L 103 3319 
L 709 3319 
L 1400 1397 
Q 1534 1031 1641 628 
Q 1738 1016 1872 1384 
L 2581 3319 
L 3144 3319 
L 1881 -56 
Q 1678 -603 1566 -809 
Q 1416 -1088 1222 -1217 
Q 1028 -1347 759 -1347 
Q 597 -1347 397 -1278 
z
" transform="scale(0.015625)"/>
      <path id="ArialMT-6c" d="M 409 0 
L 409 4581 
L 972 4581 
L 972 0 
L 409 0 
z
" transform="scale(0.015625)"/>
     </defs>
     <use xlink:href="#ArialMT-53"/>
     <use xlink:href="#ArialMT-74" x="66.699219"/>
     <use xlink:href="#ArialMT-79" x="94.482422"/>
     <use xlink:href="#ArialMT-6c" x="144.482422"/>
     <use xlink:href="#ArialMT-69" x="166.699219"/>
     <use xlink:href="#ArialMT-73" x="188.916016"/>
     <use xlink:href="#ArialMT-74" x="238.916016"/>
     <use xlink:href="#ArialMT-69" x="266.699219"/>
     <use xlink:href="#ArialMT-63" x="288.916016"/>
     <use xlink:href="#ArialMT-20" x="338.916016"/>
     <use xlink:href="#ArialMT-41" x="361.199219"/>
     <use xlink:href="#ArialMT-64" x="427.898438"/>
     <use xlink:href="#ArialMT-6a" x="483.513672"/>
     <use xlink:href="#ArialMT-75" x="505.730469"/>
     <use xlink:href="#ArialMT-73" x="561.345703"/>
     <use xlink:href="#ArialMT-74" x="611.345703"/>
     <use xlink:href="#ArialMT-6d" x="639.128906"/>
     <use xlink:href="#ArialMT-65" x="722.429688"/>
     <use xlink:href="#ArialMT-6e" x="778.044922"/>
     <use xlink:href="#ArialMT-74" x="833.660156"/>
     <use xlink:href="#ArialMT-73" x="861.443359"/>
    </g>
   </g>
   <g id="text_10">
    <!-- 9.4% -->
    <g transform="translate(113.808291 201.245861) scale(0.06 -0.06)">
     <use xlink:href="#ArialMT-39"/>
     <use xlink:href="#ArialMT-2e" x="55.615234"/>
     <use xlink:href="#ArialMT-34" x="83.398438"/>
     <use xlink:href="#ArialMT-25" x="139.013672"/>
    </g>
   </g>
   <g id="text_11">
    <!-- Engagment Enhancements -->
    <g transform="translate(7.2 201.463361) scale(0.07 -0.07)">
     <defs>
      <path id="ArialMT-45" d="M 506 0 
L 506 4581 
L 3819 4581 
L 3819 4041 
L 1113 4041 
L 1113 2638 
L 3647 2638 
L 3647 2100 
L 1113 2100 
L 1113 541 
L 3925 541 
L 3925 0 
L 506 0 
z
" transform="scale(0.015625)"/>
      <path id="ArialMT-68" d="M 422 0 
L 422 4581 
L 984 4581 
L 984 2938 
Q 1378 3394 1978 3394 
Q 2347 3394 2619 3248 
Q 2891 3103 3008 2847 
Q 3125 2591 3125 2103 
L 3125 0 
L 2563 0 
L 2563 2103 
Q 2563 2525 2380 2717 
Q 2197 2909 1863 2909 
Q 1613 2909 1392 2779 
Q 1172 2650 1078 2428 
Q 984 2206 984 1816 
L 984 0 
L 422 0 
z
" transform="scale(0.015625)"/>
     </defs>
     <use xlink:href="#ArialMT-45"/>
     <use xlink:href="#ArialMT-6e" x="66.699219"/>
     <use xlink:href="#ArialMT-67" x="122.314453"/>
     <use xlink:href="#ArialMT-61" x="177.929688"/>
     <use xlink:href="#ArialMT-67" x="233.544922"/>
     <use xlink:href="#ArialMT-6d" x="289.160156"/>
     <use xlink:href="#ArialMT-65" x="372.460938"/>
     <use xlink:href="#ArialMT-6e" x="428.076172"/>
     <use xlink:href="#ArialMT-74" x="483.691406"/>
     <use xlink:href="#ArialMT-20" x="511.474609"/>
     <use xlink:href="#ArialMT-45" x="539.257812"/>
     <use xlink:href="#ArialMT-6e" x="605.957031"/>
     <use xlink:href="#ArialMT-68" x="661.572266"/>
     <use xlink:href="#ArialMT-61" x="717.1875"/>
     <use xlink:href="#ArialMT-6e" x="772.802734"/>
     <use xlink:href="#ArialMT-63" x="828.417969"/>
     <use xlink:href="#ArialMT-65" x="878.417969"/>
     <use xlink:href="#ArialMT-6d" x="934.033203"/>
     <use xlink:href="#ArialMT-65" x="1017.333984"/>
     <use xlink:href="#ArialMT-6e" x="1072.949219"/>
     <use xlink:href="#ArialMT-74" x="1128.564453"/>
     <use xlink:href="#ArialMT-73" x="1156.347656"/>
    </g>
   </g>
   <g id="text_12">
    <!-- 10.3% -->
    <g transform="translate(115.803563 174.010961) scale(0.06 -0.06)">
     <defs>
      <path id="ArialMT-31" d="M 2384 0 
L 1822 0 
L 1822 3584 
Q 1619 3391 1289 3197 
Q 959 3003 697 2906 
L 697 3450 
Q 1169 3672 1522 3987 
Q 1875 4303 2022 4600 
L 2384 4600 
L 2384 0 
z
" transform="scale(0.015625)"/>
     </defs>
     <use xlink:href="#ArialMT-31"/>
     <use xlink:href="#ArialMT-30" x="55.615234"/>
     <use xlink:href="#ArialMT-2e" x="111.230469"/>
     <use xlink:href="#ArialMT-33" x="139.013672"/>
     <use xlink:href="#ArialMT-25" x="194.628906"/>
    </g>
   </g>
   <g id="text_13">
    <!-- Lexical Changes -->
    <g transform="translate(39.886719 174.271117) scale(0.07 -0.07)">
     <defs>
      <path id="ArialMT-4c" d="M 469 0 
L 469 4581 
L 1075 4581 
L 1075 541 
L 3331 541 
L 3331 0 
L 469 0 
z
" transform="scale(0.015625)"/>
      <path id="ArialMT-78" d="M 47 0 
L 1259 1725 
L 138 3319 
L 841 3319 
L 1350 2541 
Q 1494 2319 1581 2169 
Q 1719 2375 1834 2534 
L 2394 3319 
L 3066 3319 
L 1919 1756 
L 3153 0 
L 2463 0 
L 1781 1031 
L 1600 1309 
L 728 0 
L 47 0 
z
" transform="scale(0.015625)"/>
      <path id="ArialMT-43" d="M 3763 1606 
L 4369 1453 
Q 4178 706 3683 314 
Q 3188 -78 2472 -78 
Q 1731 -78 1267 223 
Q 803 525 561 1097 
Q 319 1669 319 2325 
Q 319 3041 592 3573 
Q 866 4106 1370 4382 
Q 1875 4659 2481 4659 
Q 3169 4659 3637 4309 
Q 4106 3959 4291 3325 
L 3694 3184 
Q 3534 3684 3231 3912 
Q 2928 4141 2469 4141 
Q 1941 4141 1586 3887 
Q 1231 3634 1087 3207 
Q 944 2781 944 2328 
Q 944 1744 1114 1308 
Q 1284 872 1643 656 
Q 2003 441 2422 441 
Q 2931 441 3284 734 
Q 3638 1028 3763 1606 
z
" transform="scale(0.015625)"/>
     </defs>
     <use xlink:href="#ArialMT-4c"/>
     <use xlink:href="#ArialMT-65" x="55.615234"/>
     <use xlink:href="#ArialMT-78" x="111.230469"/>
     <use xlink:href="#ArialMT-69" x="161.230469"/>
     <use xlink:href="#ArialMT-63" x="183.447266"/>
     <use xlink:href="#ArialMT-61" x="233.447266"/>
     <use xlink:href="#ArialMT-6c" x="289.0625"/>
     <use xlink:href="#ArialMT-20" x="311.279297"/>
     <use xlink:href="#ArialMT-43" x="339.0625"/>
     <use xlink:href="#ArialMT-68" x="411.279297"/>
     <use xlink:href="#ArialMT-61" x="466.894531"/>
     <use xlink:href="#ArialMT-6e" x="522.509766"/>
     <use xlink:href="#ArialMT-67" x="578.125"/>
     <use xlink:href="#ArialMT-65" x="633.740234"/>
     <use xlink:href="#ArialMT-73" x="689.355469"/>
    </g>
   </g>
   <g id="text_14">
    <!-- 11.5% -->
    <g transform="translate(118.463927 146.776061) scale(0.06 -0.06)">
     <use xlink:href="#ArialMT-31"/>
     <use xlink:href="#ArialMT-31" x="48.240234"/>
     <use xlink:href="#ArialMT-2e" x="103.855469"/>
     <use xlink:href="#ArialMT-35" x="131.638672"/>
     <use xlink:href="#ArialMT-25" x="187.253906"/>
    </g>
   </g>
   <g id="text_15">
    <!-- Argumentation -->
    <g transform="translate(46.114531 146.993561) scale(0.07 -0.07)">
     <defs>
      <path id="ArialMT-6f" d="M 213 1659 
Q 213 2581 725 3025 
Q 1153 3394 1769 3394 
Q 2453 3394 2887 2945 
Q 3322 2497 3322 1706 
Q 3322 1066 3130 698 
Q 2938 331 2570 128 
Q 2203 -75 1769 -75 
Q 1072 -75 642 372 
Q 213 819 213 1659 
z
M 791 1659 
Q 791 1022 1069 705 
Q 1347 388 1769 388 
Q 2188 388 2466 706 
Q 2744 1025 2744 1678 
Q 2744 2294 2464 2611 
Q 2184 2928 1769 2928 
Q 1347 2928 1069 2612 
Q 791 2297 791 1659 
z
" transform="scale(0.015625)"/>
     </defs>
     <use xlink:href="#ArialMT-41"/>
     <use xlink:href="#ArialMT-72" x="66.699219"/>
     <use xlink:href="#ArialMT-67" x="100"/>
     <use xlink:href="#ArialMT-75" x="155.615234"/>
     <use xlink:href="#ArialMT-6d" x="211.230469"/>
     <use xlink:href="#ArialMT-65" x="294.53125"/>
     <use xlink:href="#ArialMT-6e" x="350.146484"/>
     <use xlink:href="#ArialMT-74" x="405.761719"/>
     <use xlink:href="#ArialMT-61" x="433.544922"/>
     <use xlink:href="#ArialMT-74" x="489.160156"/>
     <use xlink:href="#ArialMT-69" x="516.943359"/>
     <use xlink:href="#ArialMT-6f" x="539.160156"/>
     <use xlink:href="#ArialMT-6e" x="594.775391"/>
    </g>
   </g>
   <g id="text_16">
    <!-- 12.1% -->
    <g transform="translate(119.794109 119.541161) scale(0.06 -0.06)">
     <use xlink:href="#ArialMT-31"/>
     <use xlink:href="#ArialMT-32" x="55.615234"/>
     <use xlink:href="#ArialMT-2e" x="111.230469"/>
     <use xlink:href="#ArialMT-31" x="139.013672"/>
     <use xlink:href="#ArialMT-25" x="194.628906"/>
    </g>
   </g>
   <g id="text_17">
    <!-- Informational Updates -->
    <g transform="translate(23.161094 119.842333) scale(0.07 -0.07)">
     <defs>
      <path id="ArialMT-49" d="M 597 0 
L 597 4581 
L 1203 4581 
L 1203 0 
L 597 0 
z
" transform="scale(0.015625)"/>
      <path id="ArialMT-66" d="M 556 0 
L 556 2881 
L 59 2881 
L 59 3319 
L 556 3319 
L 556 3672 
Q 556 4006 616 4169 
Q 697 4388 901 4523 
Q 1106 4659 1475 4659 
Q 1713 4659 2000 4603 
L 1916 4113 
Q 1741 4144 1584 4144 
Q 1328 4144 1222 4034 
Q 1116 3925 1116 3625 
L 1116 3319 
L 1763 3319 
L 1763 2881 
L 1116 2881 
L 1116 0 
L 556 0 
z
" transform="scale(0.015625)"/>
      <path id="ArialMT-55" d="M 3500 4581 
L 4106 4581 
L 4106 1934 
Q 4106 1244 3950 837 
Q 3794 431 3386 176 
Q 2978 -78 2316 -78 
Q 1672 -78 1262 144 
Q 853 366 678 786 
Q 503 1206 503 1934 
L 503 4581 
L 1109 4581 
L 1109 1938 
Q 1109 1341 1220 1058 
Q 1331 775 1601 622 
Q 1872 469 2263 469 
Q 2931 469 3215 772 
Q 3500 1075 3500 1938 
L 3500 4581 
z
" transform="scale(0.015625)"/>
      <path id="ArialMT-70" d="M 422 -1272 
L 422 3319 
L 934 3319 
L 934 2888 
Q 1116 3141 1344 3267 
Q 1572 3394 1897 3394 
Q 2322 3394 2647 3175 
Q 2972 2956 3137 2557 
Q 3303 2159 3303 1684 
Q 3303 1175 3120 767 
Q 2938 359 2589 142 
Q 2241 -75 1856 -75 
Q 1575 -75 1351 44 
Q 1128 163 984 344 
L 984 -1272 
L 422 -1272 
z
M 931 1641 
Q 931 1000 1190 694 
Q 1450 388 1819 388 
Q 2194 388 2461 705 
Q 2728 1022 2728 1688 
Q 2728 2322 2467 2637 
Q 2206 2953 1844 2953 
Q 1484 2953 1207 2617 
Q 931 2281 931 1641 
z
" transform="scale(0.015625)"/>
     </defs>
     <use xlink:href="#ArialMT-49"/>
     <use xlink:href="#ArialMT-6e" x="27.783203"/>
     <use xlink:href="#ArialMT-66" x="83.398438"/>
     <use xlink:href="#ArialMT-6f" x="111.181641"/>
     <use xlink:href="#ArialMT-72" x="166.796875"/>
     <use xlink:href="#ArialMT-6d" x="200.097656"/>
     <use xlink:href="#ArialMT-61" x="283.398438"/>
     <use xlink:href="#ArialMT-74" x="339.013672"/>
     <use xlink:href="#ArialMT-69" x="366.796875"/>
     <use xlink:href="#ArialMT-6f" x="389.013672"/>
     <use xlink:href="#ArialMT-6e" x="444.628906"/>
     <use xlink:href="#ArialMT-61" x="500.244141"/>
     <use xlink:href="#ArialMT-6c" x="555.859375"/>
     <use xlink:href="#ArialMT-20" x="578.076172"/>
     <use xlink:href="#ArialMT-55" x="605.859375"/>
     <use xlink:href="#ArialMT-70" x="678.076172"/>
     <use xlink:href="#ArialMT-64" x="733.691406"/>
     <use xlink:href="#ArialMT-61" x="789.306641"/>
     <use xlink:href="#ArialMT-74" x="844.921875"/>
     <use xlink:href="#ArialMT-65" x="872.705078"/>
     <use xlink:href="#ArialMT-73" x="928.320312"/>
    </g>
   </g>
   <g id="text_18">
    <!-- 13.6% -->
    <g transform="translate(123.119563 92.306261) scale(0.06 -0.06)">
     <defs>
      <path id="ArialMT-36" d="M 3184 3459 
L 2625 3416 
Q 2550 3747 2413 3897 
Q 2184 4138 1850 4138 
Q 1581 4138 1378 3988 
Q 1113 3794 959 3422 
Q 806 3050 800 2363 
Q 1003 2672 1297 2822 
Q 1591 2972 1913 2972 
Q 2475 2972 2870 2558 
Q 3266 2144 3266 1488 
Q 3266 1056 3080 686 
Q 2894 316 2569 119 
Q 2244 -78 1831 -78 
Q 1128 -78 684 439 
Q 241 956 241 2144 
Q 241 3472 731 4075 
Q 1159 4600 1884 4600 
Q 2425 4600 2770 4297 
Q 3116 3994 3184 3459 
z
M 888 1484 
Q 888 1194 1011 928 
Q 1134 663 1356 523 
Q 1578 384 1822 384 
Q 2178 384 2434 671 
Q 2691 959 2691 1453 
Q 2691 1928 2437 2201 
Q 2184 2475 1800 2475 
Q 1419 2475 1153 2201 
Q 888 1928 888 1484 
z
" transform="scale(0.015625)"/>
     </defs>
     <use xlink:href="#ArialMT-31"/>
     <use xlink:href="#ArialMT-33" x="55.615234"/>
     <use xlink:href="#ArialMT-2e" x="111.230469"/>
     <use xlink:href="#ArialMT-36" x="139.013672"/>
     <use xlink:href="#ArialMT-25" x="194.628906"/>
    </g>
   </g>
   <g id="text_19">
    <!-- Structural Changes -->
    <g transform="translate(31.721875 92.566417) scale(0.07 -0.07)">
     <use xlink:href="#ArialMT-53"/>
     <use xlink:href="#ArialMT-74" x="66.699219"/>
     <use xlink:href="#ArialMT-72" x="94.482422"/>
     <use xlink:href="#ArialMT-75" x="127.783203"/>
     <use xlink:href="#ArialMT-63" x="183.398438"/>
     <use xlink:href="#ArialMT-74" x="233.398438"/>
     <use xlink:href="#ArialMT-75" x="261.181641"/>
     <use xlink:href="#ArialMT-72" x="316.796875"/>
     <use xlink:href="#ArialMT-61" x="350.097656"/>
     <use xlink:href="#ArialMT-6c" x="405.712891"/>
     <use xlink:href="#ArialMT-20" x="427.929688"/>
     <use xlink:href="#ArialMT-43" x="455.712891"/>
     <use xlink:href="#ArialMT-68" x="527.929688"/>
     <use xlink:href="#ArialMT-61" x="583.544922"/>
     <use xlink:href="#ArialMT-6e" x="639.160156"/>
     <use xlink:href="#ArialMT-67" x="694.775391"/>
     <use xlink:href="#ArialMT-65" x="750.390625"/>
     <use xlink:href="#ArialMT-73" x="806.005859"/>
    </g>
   </g>
   <g id="text_20">
    <!-- 32.9% -->
    <g transform="translate(165.907079 65.071361) scale(0.06 -0.06)">
     <use xlink:href="#ArialMT-33"/>
     <use xlink:href="#ArialMT-32" x="55.615234"/>
     <use xlink:href="#ArialMT-2e" x="111.230469"/>
     <use xlink:href="#ArialMT-39" x="139.013672"/>
     <use xlink:href="#ArialMT-25" x="194.628906"/>
    </g>
   </g>
   <g id="text_21">
    <!-- No Change -->
    <g transform="translate(56.227344 65.331517) scale(0.07 -0.07)">
     <defs>
      <path id="ArialMT-4e" d="M 488 0 
L 488 4581 
L 1109 4581 
L 3516 984 
L 3516 4581 
L 4097 4581 
L 4097 0 
L 3475 0 
L 1069 3600 
L 1069 0 
L 488 0 
z
" transform="scale(0.015625)"/>
     </defs>
     <use xlink:href="#ArialMT-4e"/>
     <use xlink:href="#ArialMT-6f" x="72.216797"/>
     <use xlink:href="#ArialMT-20" x="127.832031"/>
     <use xlink:href="#ArialMT-43" x="155.615234"/>
     <use xlink:href="#ArialMT-68" x="227.832031"/>
     <use xlink:href="#ArialMT-61" x="283.447266"/>
     <use xlink:href="#ArialMT-6e" x="339.0625"/>
     <use xlink:href="#ArialMT-67" x="394.677734"/>
     <use xlink:href="#ArialMT-65" x="450.292969"/>
    </g>
   </g>
   <g id="text_22">
    <g id="patch_11">
     <path d="M 121.996497 251.287419 
L 204.073685 251.287419 
L 204.073685 233.070137 
L 121.996497 233.070137 
z
" style="fill: #ffffff; opacity: 0.8"/>
    </g>
    <!-- Users using feedback at -->
    <g transform="translate(126.952278 240.195919) scale(0.07 -0.07)">
     <defs>
      <path id="ArialMT-62" d="M 941 0 
L 419 0 
L 419 4581 
L 981 4581 
L 981 2947 
Q 1338 3394 1891 3394 
Q 2197 3394 2470 3270 
Q 2744 3147 2920 2923 
Q 3097 2700 3197 2384 
Q 3297 2069 3297 1709 
Q 3297 856 2875 390 
Q 2453 -75 1863 -75 
Q 1275 -75 941 416 
L 941 0 
z
M 934 1684 
Q 934 1088 1097 822 
Q 1363 388 1816 388 
Q 2184 388 2453 708 
Q 2722 1028 2722 1663 
Q 2722 2313 2464 2622 
Q 2206 2931 1841 2931 
Q 1472 2931 1203 2611 
Q 934 2291 934 1684 
z
" transform="scale(0.015625)"/>
      <path id="ArialMT-6b" d="M 425 0 
L 425 4581 
L 988 4581 
L 988 1969 
L 2319 3319 
L 3047 3319 
L 1778 2088 
L 3175 0 
L 2481 0 
L 1384 1697 
L 988 1316 
L 988 0 
L 425 0 
z
" transform="scale(0.015625)"/>
     </defs>
     <use xlink:href="#ArialMT-55"/>
     <use xlink:href="#ArialMT-73" x="72.216797"/>
     <use xlink:href="#ArialMT-65" x="122.216797"/>
     <use xlink:href="#ArialMT-72" x="177.832031"/>
     <use xlink:href="#ArialMT-73" x="211.132812"/>
     <use xlink:href="#ArialMT-20" x="261.132812"/>
     <use xlink:href="#ArialMT-75" x="288.916016"/>
     <use xlink:href="#ArialMT-73" x="344.53125"/>
     <use xlink:href="#ArialMT-69" x="394.53125"/>
     <use xlink:href="#ArialMT-6e" x="416.748047"/>
     <use xlink:href="#ArialMT-67" x="472.363281"/>
     <use xlink:href="#ArialMT-20" x="527.978516"/>
     <use xlink:href="#ArialMT-66" x="555.761719"/>
     <use xlink:href="#ArialMT-65" x="583.544922"/>
     <use xlink:href="#ArialMT-65" x="639.160156"/>
     <use xlink:href="#ArialMT-64" x="694.775391"/>
     <use xlink:href="#ArialMT-62" x="750.390625"/>
     <use xlink:href="#ArialMT-61" x="806.005859"/>
     <use xlink:href="#ArialMT-63" x="861.621094"/>
     <use xlink:href="#ArialMT-6b" x="911.621094"/>
     <use xlink:href="#ArialMT-20" x="961.621094"/>
     <use xlink:href="#ArialMT-61" x="989.404297"/>
     <use xlink:href="#ArialMT-74" x="1045.019531"/>
    </g>
    <!-- least once: 74.8% (n=98) -->
    <g transform="translate(124.026497 247.784137) scale(0.07 -0.07)">
     <defs>
      <path id="ArialMT-3a" d="M 578 2678 
L 578 3319 
L 1219 3319 
L 1219 2678 
L 578 2678 
z
M 578 0 
L 578 641 
L 1219 641 
L 1219 0 
L 578 0 
z
" transform="scale(0.015625)"/>
      <path id="ArialMT-37" d="M 303 3981 
L 303 4522 
L 3269 4522 
L 3269 4084 
Q 2831 3619 2401 2847 
Q 1972 2075 1738 1259 
Q 1569 684 1522 0 
L 944 0 
Q 953 541 1156 1306 
Q 1359 2072 1739 2783 
Q 2119 3494 2547 3981 
L 303 3981 
z
" transform="scale(0.015625)"/>
      <path id="ArialMT-38" d="M 1131 2484 
Q 781 2613 612 2850 
Q 444 3088 444 3419 
Q 444 3919 803 4259 
Q 1163 4600 1759 4600 
Q 2359 4600 2725 4251 
Q 3091 3903 3091 3403 
Q 3091 3084 2923 2848 
Q 2756 2613 2416 2484 
Q 2838 2347 3058 2040 
Q 3278 1734 3278 1309 
Q 3278 722 2862 322 
Q 2447 -78 1769 -78 
Q 1091 -78 675 323 
Q 259 725 259 1325 
Q 259 1772 486 2073 
Q 713 2375 1131 2484 
z
M 1019 3438 
Q 1019 3113 1228 2906 
Q 1438 2700 1772 2700 
Q 2097 2700 2305 2904 
Q 2513 3109 2513 3406 
Q 2513 3716 2298 3927 
Q 2084 4138 1766 4138 
Q 1444 4138 1231 3931 
Q 1019 3725 1019 3438 
z
M 838 1322 
Q 838 1081 952 856 
Q 1066 631 1291 507 
Q 1516 384 1775 384 
Q 2178 384 2440 643 
Q 2703 903 2703 1303 
Q 2703 1709 2433 1975 
Q 2163 2241 1756 2241 
Q 1359 2241 1098 1978 
Q 838 1716 838 1322 
z
" transform="scale(0.015625)"/>
      <path id="ArialMT-28" d="M 1497 -1347 
Q 1031 -759 709 28 
Q 388 816 388 1659 
Q 388 2403 628 3084 
Q 909 3875 1497 4659 
L 1900 4659 
Q 1522 4009 1400 3731 
Q 1209 3300 1100 2831 
Q 966 2247 966 1656 
Q 966 153 1900 -1347 
L 1497 -1347 
z
" transform="scale(0.015625)"/>
      <path id="ArialMT-3d" d="M 3381 2694 
L 356 2694 
L 356 3219 
L 3381 3219 
L 3381 2694 
z
M 3381 1303 
L 356 1303 
L 356 1828 
L 3381 1828 
L 3381 1303 
z
" transform="scale(0.015625)"/>
      <path id="ArialMT-29" d="M 791 -1347 
L 388 -1347 
Q 1322 153 1322 1656 
Q 1322 2244 1188 2822 
Q 1081 3291 891 3722 
Q 769 4003 388 4659 
L 791 4659 
Q 1378 3875 1659 3084 
Q 1900 2403 1900 1659 
Q 1900 816 1576 28 
Q 1253 -759 791 -1347 
z
" transform="scale(0.015625)"/>
     </defs>
     <use xlink:href="#ArialMT-6c"/>
     <use xlink:href="#ArialMT-65" x="22.216797"/>
     <use xlink:href="#ArialMT-61" x="77.832031"/>
     <use xlink:href="#ArialMT-73" x="133.447266"/>
     <use xlink:href="#ArialMT-74" x="183.447266"/>
     <use xlink:href="#ArialMT-20" x="211.230469"/>
     <use xlink:href="#ArialMT-6f" x="239.013672"/>
     <use xlink:href="#ArialMT-6e" x="294.628906"/>
     <use xlink:href="#ArialMT-63" x="350.244141"/>
     <use xlink:href="#ArialMT-65" x="400.244141"/>
     <use xlink:href="#ArialMT-3a" x="455.859375"/>
     <use xlink:href="#ArialMT-20" x="483.642578"/>
     <use xlink:href="#ArialMT-37" x="511.425781"/>
     <use xlink:href="#ArialMT-34" x="567.041016"/>
     <use xlink:href="#ArialMT-2e" x="622.65625"/>
     <use xlink:href="#ArialMT-38" x="650.439453"/>
     <use xlink:href="#ArialMT-25" x="706.054688"/>
     <use xlink:href="#ArialMT-20" x="794.970703"/>
     <use xlink:href="#ArialMT-28" x="822.753906"/>
     <use xlink:href="#ArialMT-6e" x="856.054688"/>
     <use xlink:href="#ArialMT-3d" x="911.669922"/>
     <use xlink:href="#ArialMT-39" x="970.068359"/>
     <use xlink:href="#ArialMT-38" x="1025.683594"/>
     <use xlink:href="#ArialMT-29" x="1081.298828"/>
    </g>
   </g>
   <g id="text_23">
    <!-- Change Categories Overall -->
    <g transform="translate(84.894565 39.902817) scale(0.095 -0.095)">
     <defs>
      <path id="ArialMT-4f" d="M 309 2231 
Q 309 3372 921 4017 
Q 1534 4663 2503 4663 
Q 3138 4663 3647 4359 
Q 4156 4056 4423 3514 
Q 4691 2972 4691 2284 
Q 4691 1588 4409 1038 
Q 4128 488 3612 205 
Q 3097 -78 2500 -78 
Q 1853 -78 1343 234 
Q 834 547 571 1087 
Q 309 1628 309 2231 
z
M 934 2222 
Q 934 1394 1379 917 
Q 1825 441 2497 441 
Q 3181 441 3623 922 
Q 4066 1403 4066 2288 
Q 4066 2847 3877 3264 
Q 3688 3681 3323 3911 
Q 2959 4141 2506 4141 
Q 1863 4141 1398 3698 
Q 934 3256 934 2222 
z
" transform="scale(0.015625)"/>
      <path id="ArialMT-76" d="M 1344 0 
L 81 3319 
L 675 3319 
L 1388 1331 
Q 1503 1009 1600 663 
Q 1675 925 1809 1294 
L 2547 3319 
L 3125 3319 
L 1869 0 
L 1344 0 
z
" transform="scale(0.015625)"/>
     </defs>
     <use xlink:href="#ArialMT-43"/>
     <use xlink:href="#ArialMT-68" x="72.216797"/>
     <use xlink:href="#ArialMT-61" x="127.832031"/>
     <use xlink:href="#ArialMT-6e" x="183.447266"/>
     <use xlink:href="#ArialMT-67" x="239.0625"/>
     <use xlink:href="#ArialMT-65" x="294.677734"/>
     <use xlink:href="#ArialMT-20" x="350.292969"/>
     <use xlink:href="#ArialMT-43" x="378.076172"/>
     <use xlink:href="#ArialMT-61" x="450.292969"/>
     <use xlink:href="#ArialMT-74" x="505.908203"/>
     <use xlink:href="#ArialMT-65" x="533.691406"/>
     <use xlink:href="#ArialMT-67" x="589.306641"/>
     <use xlink:href="#ArialMT-6f" x="644.921875"/>
     <use xlink:href="#ArialMT-72" x="700.537109"/>
     <use xlink:href="#ArialMT-69" x="733.837891"/>
     <use xlink:href="#ArialMT-65" x="756.054688"/>
     <use xlink:href="#ArialMT-73" x="811.669922"/>
     <use xlink:href="#ArialMT-20" x="861.669922"/>
     <use xlink:href="#ArialMT-4f" x="889.453125"/>
     <use xlink:href="#ArialMT-76" x="967.236328"/>
     <use xlink:href="#ArialMT-65" x="1017.236328"/>
     <use xlink:href="#ArialMT-72" x="1072.851562"/>
     <use xlink:href="#ArialMT-61" x="1106.152344"/>
     <use xlink:href="#ArialMT-6c" x="1161.767578"/>
     <use xlink:href="#ArialMT-6c" x="1183.984375"/>
    </g>
   </g>
  </g>
  <g id="axes_2">
   <g id="patch_12">
    <path d="M 224.989321 267.782017 
L 324.752957 267.782017 
L 324.752957 49.902817 
L 224.989321 49.902817 
z
" style="fill: #ffffff"/>
   </g>
   <g id="patch_13">
    <path d="M 224.989321 264.377655 
L 226.836796 264.377655 
L 226.836796 257.56893 
L 224.989321 257.56893 
z
" clip-path="url(#pa689dbdd9b)" style="fill: #0072b2; opacity: 0.9"/>
   </g>
   <g id="patch_14">
    <path d="M 224.989321 237.142755 
L 230.531745 237.142755 
L 230.531745 230.33403 
L 224.989321 230.33403 
z
" clip-path="url(#pa689dbdd9b)" style="fill: #0072b2; opacity: 0.9"/>
   </g>
   <g id="patch_15">
    <path d="M 224.989321 209.907855 
L 241.616594 209.907855 
L 241.616594 203.09913 
L 224.989321 203.09913 
z
" clip-path="url(#pa689dbdd9b)" style="fill: #0072b2; opacity: 0.9"/>
   </g>
   <g id="patch_16">
    <path d="M 224.989321 182.672955 
L 250.853967 182.672955 
L 250.853967 175.86423 
L 224.989321 175.86423 
z
" clip-path="url(#pa689dbdd9b)" style="fill: #0072b2; opacity: 0.9"/>
   </g>
   <g id="patch_17">
    <path d="M 224.989321 155.438055 
L 241.616594 155.438055 
L 241.616594 148.62933 
L 224.989321 148.62933 
z
" clip-path="url(#pa689dbdd9b)" style="fill: #0072b2; opacity: 0.9"/>
   </g>
   <g id="patch_18">
    <path d="M 224.989321 128.203155 
L 243.464068 128.203155 
L 243.464068 121.39443 
L 224.989321 121.39443 
z
" clip-path="url(#pa689dbdd9b)" style="fill: #0072b2; opacity: 0.9"/>
   </g>
   <g id="patch_19">
    <path d="M 224.989321 100.968255 
L 265.633765 100.968255 
L 265.633765 94.15953 
L 224.989321 94.15953 
z
" clip-path="url(#pa689dbdd9b)" style="fill: #0072b2; opacity: 0.9"/>
   </g>
   <g id="patch_20">
    <path d="M 224.989321 73.733355 
L 317.363058 73.733355 
L 317.363058 66.92463 
L 224.989321 66.92463 
z
" clip-path="url(#pa689dbdd9b)" style="fill: #0072b2; opacity: 0.9"/>
   </g>
   <g id="patch_21">
    <path d="M 224.989321 257.56893 
L 238.159438 257.56893 
L 238.159438 250.760205 
L 224.989321 250.760205 
z
" clip-path="url(#pa689dbdd9b)" style="fill: #e69f00; opacity: 0.9"/>
   </g>
   <g id="patch_22">
    <path d="M 224.989321 230.33403 
L 242.549477 230.33403 
L 242.549477 223.525305 
L 224.989321 223.525305 
z
" clip-path="url(#pa689dbdd9b)" style="fill: #e69f00; opacity: 0.9"/>
   </g>
   <g id="patch_23">
    <path d="M 224.989321 203.09913 
L 244.744497 203.09913 
L 244.744497 196.290405 
L 224.989321 196.290405 
z
" clip-path="url(#pa689dbdd9b)" style="fill: #e69f00; opacity: 0.9"/>
   </g>
   <g id="patch_24">
    <path d="M 224.989321 175.86423 
L 240.354458 175.86423 
L 240.354458 169.055505 
L 224.989321 169.055505 
z
" clip-path="url(#pa689dbdd9b)" style="fill: #e69f00; opacity: 0.9"/>
   </g>
   <g id="patch_25">
    <path d="M 224.989321 148.62933 
L 246.939516 148.62933 
L 246.939516 141.820605 
L 224.989321 141.820605 
z
" clip-path="url(#pa689dbdd9b)" style="fill: #e69f00; opacity: 0.9"/>
   </g>
   <g id="patch_26">
    <path d="M 224.989321 121.39443 
L 264.499672 121.39443 
L 264.499672 114.585705 
L 224.989321 114.585705 
z
" clip-path="url(#pa689dbdd9b)" style="fill: #e69f00; opacity: 0.9"/>
   </g>
   <g id="patch_27">
    <path d="M 224.989321 94.15953 
L 266.694692 94.15953 
L 266.694692 87.350805 
L 224.989321 87.350805 
z
" clip-path="url(#pa689dbdd9b)" style="fill: #e69f00; opacity: 0.9"/>
   </g>
   <g id="patch_28">
    <path d="M 224.989321 66.92463 
L 277.669789 66.92463 
L 277.669789 60.115905 
L 224.989321 60.115905 
z
" clip-path="url(#pa689dbdd9b)" style="fill: #e69f00; opacity: 0.9"/>
   </g>
   <g id="patch_29">
    <path d="M 224.989321 250.760205 
L 237.081883 250.760205 
L 237.081883 243.95148 
L 224.989321 243.95148 
z
" clip-path="url(#pa689dbdd9b)" style="fill: #009e73; opacity: 0.9"/>
   </g>
   <g id="patch_30">
    <path d="M 224.989321 223.525305 
L 239.09731 223.525305 
L 239.09731 216.71658 
L 224.989321 216.71658 
z
" clip-path="url(#pa689dbdd9b)" style="fill: #009e73; opacity: 0.9"/>
   </g>
   <g id="patch_31">
    <path d="M 224.989321 196.290405 
L 251.189872 196.290405 
L 251.189872 189.48168 
L 224.989321 189.48168 
z
" clip-path="url(#pa689dbdd9b)" style="fill: #009e73; opacity: 0.9"/>
   </g>
   <g id="patch_32">
    <path d="M 224.989321 169.055505 
L 251.189872 169.055505 
L 251.189872 162.24678 
L 224.989321 162.24678 
z
" clip-path="url(#pa689dbdd9b)" style="fill: #009e73; opacity: 0.9"/>
   </g>
   <g id="patch_33">
    <path d="M 224.989321 141.820605 
L 263.282434 141.820605 
L 263.282434 135.01188 
L 224.989321 135.01188 
z
" clip-path="url(#pa689dbdd9b)" style="fill: #009e73; opacity: 0.9"/>
   </g>
   <g id="patch_34">
    <path d="M 224.989321 114.585705 
L 249.174445 114.585705 
L 249.174445 107.77698 
L 224.989321 107.77698 
z
" clip-path="url(#pa689dbdd9b)" style="fill: #009e73; opacity: 0.9"/>
   </g>
   <g id="patch_35">
    <path d="M 224.989321 87.350805 
L 233.051029 87.350805 
L 233.051029 80.54208 
L 224.989321 80.54208 
z
" clip-path="url(#pa689dbdd9b)" style="fill: #009e73; opacity: 0.9"/>
   </g>
   <g id="patch_36">
    <path d="M 224.989321 60.115905 
L 295.529266 60.115905 
L 295.529266 53.30718 
L 224.989321 53.30718 
z
" clip-path="url(#pa689dbdd9b)" style="fill: #009e73; opacity: 0.9"/>
   </g>
   <g id="matplotlib.axis_3">
    <g id="xtick_4">
     <g id="line2d_15">
      <path d="M 224.989321 267.782017 
L 224.989321 49.902817 
" clip-path="url(#pa689dbdd9b)" style="fill: none; stroke-dasharray: 2.96,1.28; stroke-dashoffset: 0; stroke: #b0b0b0; stroke-opacity: 0.3; stroke-width: 0.8"/>
     </g>
     <g id="line2d_16">
      <g>
       <use xlink:href="#m7129419656" x="224.989321" y="267.782017" style="stroke: #000000; stroke-width: 0.8"/>
      </g>
     </g>
     <g id="text_24">
      <!-- 0 -->
      <g transform="translate(223.042993 276.792486) scale(0.07 -0.07)">
       <use xlink:href="#ArialMT-30"/>
      </g>
     </g>
    </g>
    <g id="xtick_5">
     <g id="line2d_17">
      <path d="M 269.328715 267.782017 
L 269.328715 49.902817 
" clip-path="url(#pa689dbdd9b)" style="fill: none; stroke-dasharray: 2.96,1.28; stroke-dashoffset: 0; stroke: #b0b0b0; stroke-opacity: 0.3; stroke-width: 0.8"/>
     </g>
     <g id="line2d_18">
      <g>
       <use xlink:href="#m7129419656" x="269.328715" y="267.782017" style="stroke: #000000; stroke-width: 0.8"/>
      </g>
     </g>
     <g id="text_25">
      <!-- 20 -->
      <g transform="translate(265.436059 276.792486) scale(0.07 -0.07)">
       <use xlink:href="#ArialMT-32"/>
       <use xlink:href="#ArialMT-30" x="55.615234"/>
      </g>
     </g>
    </g>
    <g id="xtick_6">
     <g id="line2d_19">
      <path d="M 313.668109 267.782017 
L 313.668109 49.902817 
" clip-path="url(#pa689dbdd9b)" style="fill: none; stroke-dasharray: 2.96,1.28; stroke-dashoffset: 0; stroke: #b0b0b0; stroke-opacity: 0.3; stroke-width: 0.8"/>
     </g>
     <g id="line2d_20">
      <g>
       <use xlink:href="#m7129419656" x="313.668109" y="267.782017" style="stroke: #000000; stroke-width: 0.8"/>
      </g>
     </g>
     <g id="text_26">
      <!-- 40 -->
      <g transform="translate(309.775453 276.792486) scale(0.07 -0.07)">
       <use xlink:href="#ArialMT-34"/>
       <use xlink:href="#ArialMT-30" x="55.615234"/>
      </g>
     </g>
    </g>
    <g id="text_27">
     <!-- Percentage -->
     <g transform="translate(254.413639 288.909986) scale(0.08 -0.08)">
      <use xlink:href="#ArialMT-50"/>
      <use xlink:href="#ArialMT-65" x="66.699219"/>
      <use xlink:href="#ArialMT-72" x="122.314453"/>
      <use xlink:href="#ArialMT-63" x="155.615234"/>
      <use xlink:href="#ArialMT-65" x="205.615234"/>
      <use xlink:href="#ArialMT-6e" x="261.230469"/>
      <use xlink:href="#ArialMT-74" x="316.845703"/>
      <use xlink:href="#ArialMT-61" x="344.628906"/>
      <use xlink:href="#ArialMT-67" x="400.244141"/>
      <use xlink:href="#ArialMT-65" x="455.859375"/>
     </g>
    </g>
   </g>
   <g id="matplotlib.axis_4"/>
   <g id="line2d_21">
    <path d="M 224.989321 254.164567 
L 324.752957 254.164567 
" clip-path="url(#pa689dbdd9b)" style="fill: none; stroke-dasharray: 1.85,0.8; stroke-dashoffset: 0; stroke: #808080; stroke-opacity: 0.2; stroke-width: 0.5"/>
   </g>
   <g id="line2d_22">
    <path d="M 224.989321 226.929667 
L 324.752957 226.929667 
" clip-path="url(#pa689dbdd9b)" style="fill: none; stroke-dasharray: 1.85,0.8; stroke-dashoffset: 0; stroke: #808080; stroke-opacity: 0.2; stroke-width: 0.5"/>
   </g>
   <g id="line2d_23">
    <path d="M 224.989321 199.694767 
L 324.752957 199.694767 
" clip-path="url(#pa689dbdd9b)" style="fill: none; stroke-dasharray: 1.85,0.8; stroke-dashoffset: 0; stroke: #808080; stroke-opacity: 0.2; stroke-width: 0.5"/>
   </g>
   <g id="line2d_24">
    <path d="M 224.989321 172.459867 
L 324.752957 172.459867 
" clip-path="url(#pa689dbdd9b)" style="fill: none; stroke-dasharray: 1.85,0.8; stroke-dashoffset: 0; stroke: #808080; stroke-opacity: 0.2; stroke-width: 0.5"/>
   </g>
   <g id="line2d_25">
    <path d="M 224.989321 145.224967 
L 324.752957 145.224967 
" clip-path="url(#pa689dbdd9b)" style="fill: none; stroke-dasharray: 1.85,0.8; stroke-dashoffset: 0; stroke: #808080; stroke-opacity: 0.2; stroke-width: 0.5"/>
   </g>
   <g id="line2d_26">
    <path d="M 224.989321 117.990067 
L 324.752957 117.990067 
" clip-path="url(#pa689dbdd9b)" style="fill: none; stroke-dasharray: 1.85,0.8; stroke-dashoffset: 0; stroke: #808080; stroke-opacity: 0.2; stroke-width: 0.5"/>
   </g>
   <g id="line2d_27">
    <path d="M 224.989321 90.755167 
L 324.752957 90.755167 
" clip-path="url(#pa689dbdd9b)" style="fill: none; stroke-dasharray: 1.85,0.8; stroke-dashoffset: 0; stroke: #808080; stroke-opacity: 0.2; stroke-width: 0.5"/>
   </g>
   <g id="line2d_28">
    <path d="M 224.989321 63.520267 
L 324.752957 63.520267 
" clip-path="url(#pa689dbdd9b)" style="fill: none; stroke-dasharray: 1.85,0.8; stroke-dashoffset: 0; stroke: #808080; stroke-opacity: 0.2; stroke-width: 0.5"/>
   </g>
   <g id="text_28">
    <!-- f -->
    <g transform="translate(213.017685 17.220937) scale(0.14 -0.14)">
     <defs>
      <path id="Arial-BoldMT-66" d="M 75 3319 
L 563 3319 
L 563 3569 
Q 563 3988 652 4194 
Q 741 4400 980 4529 
Q 1219 4659 1584 4659 
Q 1959 4659 2319 4547 
L 2200 3934 
Q 1991 3984 1797 3984 
Q 1606 3984 1523 3895 
Q 1441 3806 1441 3553 
L 1441 3319 
L 2097 3319 
L 2097 2628 
L 1441 2628 
L 1441 0 
L 563 0 
L 563 2628 
L 75 2628 
L 75 3319 
z
" transform="scale(0.015625)"/>
     </defs>
     <use xlink:href="#Arial-BoldMT-66"/>
    </g>
   </g>
   <g id="text_29">
    <!-- 0.8% -->
    <g transform="translate(227.501887 262.653644) scale(0.065 -0.065)">
     <use xlink:href="#ArialMT-30"/>
     <use xlink:href="#ArialMT-2e" x="55.615234"/>
     <use xlink:href="#ArialMT-38" x="83.398438"/>
     <use xlink:href="#ArialMT-25" x="139.013672"/>
    </g>
   </g>
   <g id="text_30">
    <!-- 2.5% -->
    <g transform="translate(231.196836 235.418744) scale(0.065 -0.065)">
     <use xlink:href="#ArialMT-32"/>
     <use xlink:href="#ArialMT-2e" x="55.615234"/>
     <use xlink:href="#ArialMT-35" x="83.398438"/>
     <use xlink:href="#ArialMT-25" x="139.013672"/>
    </g>
   </g>
   <g id="text_31">
    <!-- 7.5% -->
    <g transform="translate(242.281685 208.183844) scale(0.065 -0.065)">
     <use xlink:href="#ArialMT-37"/>
     <use xlink:href="#ArialMT-2e" x="55.615234"/>
     <use xlink:href="#ArialMT-35" x="83.398438"/>
     <use xlink:href="#ArialMT-25" x="139.013672"/>
    </g>
   </g>
   <g id="text_32">
    <!-- 11.7% -->
    <g transform="translate(251.519058 180.948944) scale(0.065 -0.065)">
     <use xlink:href="#ArialMT-31"/>
     <use xlink:href="#ArialMT-31" x="48.240234"/>
     <use xlink:href="#ArialMT-2e" x="103.855469"/>
     <use xlink:href="#ArialMT-37" x="131.638672"/>
     <use xlink:href="#ArialMT-25" x="187.253906"/>
    </g>
   </g>
   <g id="text_33">
    <!-- 7.5% -->
    <g transform="translate(242.281685 153.714044) scale(0.065 -0.065)">
     <use xlink:href="#ArialMT-37"/>
     <use xlink:href="#ArialMT-2e" x="55.615234"/>
     <use xlink:href="#ArialMT-35" x="83.398438"/>
     <use xlink:href="#ArialMT-25" x="139.013672"/>
    </g>
   </g>
   <g id="text_34">
    <!-- 8.3% -->
    <g transform="translate(244.129159 126.479144) scale(0.065 -0.065)">
     <use xlink:href="#ArialMT-38"/>
     <use xlink:href="#ArialMT-2e" x="55.615234"/>
     <use xlink:href="#ArialMT-33" x="83.398438"/>
     <use xlink:href="#ArialMT-25" x="139.013672"/>
    </g>
   </g>
   <g id="text_35">
    <!-- 18.3% -->
    <g transform="translate(266.298856 99.244244) scale(0.065 -0.065)">
     <use xlink:href="#ArialMT-31"/>
     <use xlink:href="#ArialMT-38" x="55.615234"/>
     <use xlink:href="#ArialMT-2e" x="111.230469"/>
     <use xlink:href="#ArialMT-33" x="139.013672"/>
     <use xlink:href="#ArialMT-25" x="194.628906"/>
    </g>
   </g>
   <g id="text_36">
    <!-- 41.7% -->
    <g transform="translate(318.028149 72.009344) scale(0.065 -0.065)">
     <use xlink:href="#ArialMT-34"/>
     <use xlink:href="#ArialMT-31" x="55.615234"/>
     <use xlink:href="#ArialMT-2e" x="111.230469"/>
     <use xlink:href="#ArialMT-37" x="139.013672"/>
     <use xlink:href="#ArialMT-25" x="194.628906"/>
    </g>
   </g>
   <g id="text_37">
    <!-- 5.9% -->
    <g transform="translate(238.824529 255.844919) scale(0.065 -0.065)">
     <use xlink:href="#ArialMT-35"/>
     <use xlink:href="#ArialMT-2e" x="55.615234"/>
     <use xlink:href="#ArialMT-39" x="83.398438"/>
     <use xlink:href="#ArialMT-25" x="139.013672"/>
    </g>
   </g>
   <g id="text_38">
    <!-- 7.9% -->
    <g transform="translate(243.214568 228.610019) scale(0.065 -0.065)">
     <use xlink:href="#ArialMT-37"/>
     <use xlink:href="#ArialMT-2e" x="55.615234"/>
     <use xlink:href="#ArialMT-39" x="83.398438"/>
     <use xlink:href="#ArialMT-25" x="139.013672"/>
    </g>
   </g>
   <g id="text_39">
    <!-- 8.9% -->
    <g transform="translate(245.409587 201.375119) scale(0.065 -0.065)">
     <use xlink:href="#ArialMT-38"/>
     <use xlink:href="#ArialMT-2e" x="55.615234"/>
     <use xlink:href="#ArialMT-39" x="83.398438"/>
     <use xlink:href="#ArialMT-25" x="139.013672"/>
    </g>
   </g>
   <g id="text_40">
    <!-- 6.9% -->
    <g transform="translate(241.019548 174.140219) scale(0.065 -0.065)">
     <use xlink:href="#ArialMT-36"/>
     <use xlink:href="#ArialMT-2e" x="55.615234"/>
     <use xlink:href="#ArialMT-39" x="83.398438"/>
     <use xlink:href="#ArialMT-25" x="139.013672"/>
    </g>
   </g>
   <g id="text_41">
    <!-- 9.9% -->
    <g transform="translate(247.604607 146.905319) scale(0.065 -0.065)">
     <use xlink:href="#ArialMT-39"/>
     <use xlink:href="#ArialMT-2e" x="55.615234"/>
     <use xlink:href="#ArialMT-39" x="83.398438"/>
     <use xlink:href="#ArialMT-25" x="139.013672"/>
    </g>
   </g>
   <g id="text_42">
    <!-- 17.8% -->
    <g transform="translate(265.164763 119.670419) scale(0.065 -0.065)">
     <use xlink:href="#ArialMT-31"/>
     <use xlink:href="#ArialMT-37" x="55.615234"/>
     <use xlink:href="#ArialMT-2e" x="111.230469"/>
     <use xlink:href="#ArialMT-38" x="139.013672"/>
     <use xlink:href="#ArialMT-25" x="194.628906"/>
    </g>
   </g>
   <g id="text_43">
    <!-- 18.8% -->
    <g transform="translate(267.359782 92.435519) scale(0.065 -0.065)">
     <use xlink:href="#ArialMT-31"/>
     <use xlink:href="#ArialMT-38" x="55.615234"/>
     <use xlink:href="#ArialMT-2e" x="111.230469"/>
     <use xlink:href="#ArialMT-38" x="139.013672"/>
     <use xlink:href="#ArialMT-25" x="194.628906"/>
    </g>
   </g>
   <g id="text_44">
    <!-- 23.8% -->
    <g transform="translate(278.33488 65.200619) scale(0.065 -0.065)">
     <use xlink:href="#ArialMT-32"/>
     <use xlink:href="#ArialMT-33" x="55.615234"/>
     <use xlink:href="#ArialMT-2e" x="111.230469"/>
     <use xlink:href="#ArialMT-38" x="139.013672"/>
     <use xlink:href="#ArialMT-25" x="194.628906"/>
    </g>
   </g>
   <g id="text_45">
    <!-- 5.5% -->
    <g transform="translate(237.746974 249.036194) scale(0.065 -0.065)">
     <use xlink:href="#ArialMT-35"/>
     <use xlink:href="#ArialMT-2e" x="55.615234"/>
     <use xlink:href="#ArialMT-35" x="83.398438"/>
     <use xlink:href="#ArialMT-25" x="139.013672"/>
    </g>
   </g>
   <g id="text_46">
    <!-- 6.4% -->
    <g transform="translate(239.762401 221.801294) scale(0.065 -0.065)">
     <use xlink:href="#ArialMT-36"/>
     <use xlink:href="#ArialMT-2e" x="55.615234"/>
     <use xlink:href="#ArialMT-34" x="83.398438"/>
     <use xlink:href="#ArialMT-25" x="139.013672"/>
    </g>
   </g>
   <g id="text_47">
    <!-- 11.8% -->
    <g transform="translate(251.854963 194.566394) scale(0.065 -0.065)">
     <use xlink:href="#ArialMT-31"/>
     <use xlink:href="#ArialMT-31" x="48.240234"/>
     <use xlink:href="#ArialMT-2e" x="103.855469"/>
     <use xlink:href="#ArialMT-38" x="131.638672"/>
     <use xlink:href="#ArialMT-25" x="187.253906"/>
    </g>
   </g>
   <g id="text_48">
    <!-- 11.8% -->
    <g transform="translate(251.854963 167.331494) scale(0.065 -0.065)">
     <use xlink:href="#ArialMT-31"/>
     <use xlink:href="#ArialMT-31" x="48.240234"/>
     <use xlink:href="#ArialMT-2e" x="103.855469"/>
     <use xlink:href="#ArialMT-38" x="131.638672"/>
     <use xlink:href="#ArialMT-25" x="187.253906"/>
    </g>
   </g>
   <g id="text_49">
    <!-- 17.3% -->
    <g transform="translate(263.947525 140.096594) scale(0.065 -0.065)">
     <use xlink:href="#ArialMT-31"/>
     <use xlink:href="#ArialMT-37" x="55.615234"/>
     <use xlink:href="#ArialMT-2e" x="111.230469"/>
     <use xlink:href="#ArialMT-33" x="139.013672"/>
     <use xlink:href="#ArialMT-25" x="194.628906"/>
    </g>
   </g>
   <g id="text_50">
    <!-- 10.9% -->
    <g transform="translate(249.839536 112.861694) scale(0.065 -0.065)">
     <use xlink:href="#ArialMT-31"/>
     <use xlink:href="#ArialMT-30" x="55.615234"/>
     <use xlink:href="#ArialMT-2e" x="111.230469"/>
     <use xlink:href="#ArialMT-39" x="139.013672"/>
     <use xlink:href="#ArialMT-25" x="194.628906"/>
    </g>
   </g>
   <g id="text_51">
    <!-- 3.6% -->
    <g transform="translate(233.71612 85.626794) scale(0.065 -0.065)">
     <use xlink:href="#ArialMT-33"/>
     <use xlink:href="#ArialMT-2e" x="55.615234"/>
     <use xlink:href="#ArialMT-36" x="83.398438"/>
     <use xlink:href="#ArialMT-25" x="139.013672"/>
    </g>
   </g>
   <g id="text_52">
    <!-- 31.8% -->
    <g transform="translate(296.194357 58.391894) scale(0.065 -0.065)">
     <use xlink:href="#ArialMT-33"/>
     <use xlink:href="#ArialMT-31" x="55.615234"/>
     <use xlink:href="#ArialMT-2e" x="111.230469"/>
     <use xlink:href="#ArialMT-38" x="139.013672"/>
     <use xlink:href="#ArialMT-25" x="194.628906"/>
    </g>
   </g>
   <g id="text_53">
    <!-- Changes by Topic -->
    <g transform="translate(237.199928 39.902817) scale(0.095 -0.095)">
     <defs>
      <path id="ArialMT-54" d="M 1659 0 
L 1659 4041 
L 150 4041 
L 150 4581 
L 3781 4581 
L 3781 4041 
L 2266 4041 
L 2266 0 
L 1659 0 
z
" transform="scale(0.015625)"/>
     </defs>
     <use xlink:href="#ArialMT-43"/>
     <use xlink:href="#ArialMT-68" x="72.216797"/>
     <use xlink:href="#ArialMT-61" x="127.832031"/>
     <use xlink:href="#ArialMT-6e" x="183.447266"/>
     <use xlink:href="#ArialMT-67" x="239.0625"/>
     <use xlink:href="#ArialMT-65" x="294.677734"/>
     <use xlink:href="#ArialMT-73" x="350.292969"/>
     <use xlink:href="#ArialMT-20" x="400.292969"/>
     <use xlink:href="#ArialMT-62" x="428.076172"/>
     <use xlink:href="#ArialMT-79" x="483.691406"/>
     <use xlink:href="#ArialMT-20" x="533.691406"/>
     <use xlink:href="#ArialMT-54" x="559.724609"/>
     <use xlink:href="#ArialMT-6f" x="609.683594"/>
     <use xlink:href="#ArialMT-70" x="665.298828"/>
     <use xlink:href="#ArialMT-69" x="720.914062"/>
     <use xlink:href="#ArialMT-63" x="743.130859"/>
    </g>
   </g>
  </g>
  <g id="axes_3">
   <g id="patch_37">
    <path d="M 357.674957 267.782017 
L 487.367685 267.782017 
L 487.367685 49.902817 
L 357.674957 49.902817 
z
" style="fill: #ffffff"/>
   </g>
   <g id="matplotlib.axis_5">
    <g id="xtick_7">
     <g id="line2d_29">
      <path d="M 357.674957 267.782017 
L 357.674957 49.902817 
" clip-path="url(#pe0f482574e)" style="fill: none; stroke-dasharray: 2.96,1.28; stroke-dashoffset: 0; stroke: #b0b0b0; stroke-opacity: 0.3; stroke-width: 0.8"/>
     </g>
     <g id="line2d_30">
      <g>
       <use xlink:href="#m7129419656" x="357.674957" y="267.782017" style="stroke: #000000; stroke-width: 0.8"/>
      </g>
     </g>
     <g id="text_54">
      <!-- 0.0 -->
      <g transform="translate(352.809957 276.792486) scale(0.07 -0.07)">
       <use xlink:href="#ArialMT-30"/>
       <use xlink:href="#ArialMT-2e" x="55.615234"/>
       <use xlink:href="#ArialMT-30" x="83.398438"/>
      </g>
     </g>
    </g>
    <g id="xtick_8">
     <g id="line2d_31">
      <path d="M 383.613503 267.782017 
L 383.613503 49.902817 
" clip-path="url(#pe0f482574e)" style="fill: none; stroke-dasharray: 2.96,1.28; stroke-dashoffset: 0; stroke: #b0b0b0; stroke-opacity: 0.3; stroke-width: 0.8"/>
     </g>
     <g id="line2d_32">
      <g>
       <use xlink:href="#m7129419656" x="383.613503" y="267.782017" style="stroke: #000000; stroke-width: 0.8"/>
      </g>
     </g>
     <g id="text_55">
      <!-- 0.2 -->
      <g transform="translate(378.748503 276.792486) scale(0.07 -0.07)">
       <use xlink:href="#ArialMT-30"/>
       <use xlink:href="#ArialMT-2e" x="55.615234"/>
       <use xlink:href="#ArialMT-32" x="83.398438"/>
      </g>
     </g>
    </g>
    <g id="xtick_9">
     <g id="line2d_33">
      <path d="M 409.552048 267.782017 
L 409.552048 49.902817 
" clip-path="url(#pe0f482574e)" style="fill: none; stroke-dasharray: 2.96,1.28; stroke-dashoffset: 0; stroke: #b0b0b0; stroke-opacity: 0.3; stroke-width: 0.8"/>
     </g>
     <g id="line2d_34">
      <g>
       <use xlink:href="#m7129419656" x="409.552048" y="267.782017" style="stroke: #000000; stroke-width: 0.8"/>
      </g>
     </g>
     <g id="text_56">
      <!-- 0.4 -->
      <g transform="translate(404.687048 276.792486) scale(0.07 -0.07)">
       <use xlink:href="#ArialMT-30"/>
       <use xlink:href="#ArialMT-2e" x="55.615234"/>
       <use xlink:href="#ArialMT-34" x="83.398438"/>
      </g>
     </g>
    </g>
    <g id="xtick_10">
     <g id="line2d_35">
      <path d="M 435.490594 267.782017 
L 435.490594 49.902817 
" clip-path="url(#pe0f482574e)" style="fill: none; stroke-dasharray: 2.96,1.28; stroke-dashoffset: 0; stroke: #b0b0b0; stroke-opacity: 0.3; stroke-width: 0.8"/>
     </g>
     <g id="line2d_36">
      <g>
       <use xlink:href="#m7129419656" x="435.490594" y="267.782017" style="stroke: #000000; stroke-width: 0.8"/>
      </g>
     </g>
     <g id="text_57">
      <!-- 0.6 -->
      <g transform="translate(430.625594 276.792486) scale(0.07 -0.07)">
       <use xlink:href="#ArialMT-30"/>
       <use xlink:href="#ArialMT-2e" x="55.615234"/>
       <use xlink:href="#ArialMT-36" x="83.398438"/>
      </g>
     </g>
    </g>
    <g id="xtick_11">
     <g id="line2d_37">
      <path d="M 461.429139 267.782017 
L 461.429139 49.902817 
" clip-path="url(#pe0f482574e)" style="fill: none; stroke-dasharray: 2.96,1.28; stroke-dashoffset: 0; stroke: #b0b0b0; stroke-opacity: 0.3; stroke-width: 0.8"/>
     </g>
     <g id="line2d_38">
      <g>
       <use xlink:href="#m7129419656" x="461.429139" y="267.782017" style="stroke: #000000; stroke-width: 0.8"/>
      </g>
     </g>
     <g id="text_58">
      <!-- 0.8 -->
      <g transform="translate(456.564139 276.792486) scale(0.07 -0.07)">
       <use xlink:href="#ArialMT-30"/>
       <use xlink:href="#ArialMT-2e" x="55.615234"/>
       <use xlink:href="#ArialMT-38" x="83.398438"/>
      </g>
     </g>
    </g>
    <g id="xtick_12">
     <g id="line2d_39">
      <path d="M 487.367685 267.782017 
L 487.367685 49.902817 
" clip-path="url(#pe0f482574e)" style="fill: none; stroke-dasharray: 2.96,1.28; stroke-dashoffset: 0; stroke: #b0b0b0; stroke-opacity: 0.3; stroke-width: 0.8"/>
     </g>
     <g id="line2d_40">
      <g>
       <use xlink:href="#m7129419656" x="487.367685" y="267.782017" style="stroke: #000000; stroke-width: 0.8"/>
      </g>
     </g>
     <g id="text_59">
      <!-- 1.0 -->
      <g transform="translate(482.502685 276.792486) scale(0.07 -0.07)">
       <use xlink:href="#ArialMT-31"/>
       <use xlink:href="#ArialMT-2e" x="55.615234"/>
       <use xlink:href="#ArialMT-30" x="83.398438"/>
      </g>
     </g>
    </g>
    <g id="text_60">
     <!-- Jaccard Similarity -->
     <g transform="translate(391.182571 289.007486) scale(0.08 -0.08)">
      <defs>
       <path id="ArialMT-4a" d="M 184 1300 
L 731 1375 
Q 753 850 928 656 
Q 1103 463 1413 463 
Q 1641 463 1806 567 
Q 1972 672 2034 851 
Q 2097 1031 2097 1425 
L 2097 4581 
L 2703 4581 
L 2703 1459 
Q 2703 884 2564 568 
Q 2425 253 2123 87 
Q 1822 -78 1416 -78 
Q 813 -78 492 269 
Q 172 616 184 1300 
z
" transform="scale(0.015625)"/>
      </defs>
      <use xlink:href="#ArialMT-4a"/>
      <use xlink:href="#ArialMT-61" x="50"/>
      <use xlink:href="#ArialMT-63" x="105.615234"/>
      <use xlink:href="#ArialMT-63" x="155.615234"/>
      <use xlink:href="#ArialMT-61" x="205.615234"/>
      <use xlink:href="#ArialMT-72" x="261.230469"/>
      <use xlink:href="#ArialMT-64" x="294.53125"/>
      <use xlink:href="#ArialMT-20" x="350.146484"/>
      <use xlink:href="#ArialMT-53" x="377.929688"/>
      <use xlink:href="#ArialMT-69" x="444.628906"/>
      <use xlink:href="#ArialMT-6d" x="466.845703"/>
      <use xlink:href="#ArialMT-69" x="550.146484"/>
      <use xlink:href="#ArialMT-6c" x="572.363281"/>
      <use xlink:href="#ArialMT-61" x="594.580078"/>
      <use xlink:href="#ArialMT-72" x="650.195312"/>
      <use xlink:href="#ArialMT-69" x="683.496094"/>
      <use xlink:href="#ArialMT-74" x="705.712891"/>
      <use xlink:href="#ArialMT-79" x="733.496094"/>
     </g>
    </g>
   </g>
   <g id="matplotlib.axis_6">
    <g id="ytick_1">
     <g id="line2d_41">
      <defs>
       <path id="me9c5bfc807" d="M 0 0 
L -2 0 
" style="stroke: #000000; stroke-width: 0.8"/>
      </defs>
      <g>
       <use xlink:href="#me9c5bfc807" x="357.674957" y="267.782017" style="stroke: #000000; stroke-width: 0.8"/>
      </g>
     </g>
     <g id="text_61">
      <!-- 0.0 -->
      <g transform="translate(343.944957 270.287252) scale(0.07 -0.07)">
       <use xlink:href="#ArialMT-30"/>
       <use xlink:href="#ArialMT-2e" x="55.615234"/>
       <use xlink:href="#ArialMT-30" x="83.398438"/>
      </g>
     </g>
    </g>
    <g id="ytick_2">
     <g id="line2d_42">
      <g>
       <use xlink:href="#me9c5bfc807" x="357.674957" y="240.90492" style="stroke: #000000; stroke-width: 0.8"/>
      </g>
     </g>
     <g id="text_62">
      <!-- 0.2 -->
      <g transform="translate(343.944957 243.410154) scale(0.07 -0.07)">
       <use xlink:href="#ArialMT-30"/>
       <use xlink:href="#ArialMT-2e" x="55.615234"/>
       <use xlink:href="#ArialMT-32" x="83.398438"/>
      </g>
     </g>
    </g>
    <g id="ytick_3">
     <g id="line2d_43">
      <g>
       <use xlink:href="#me9c5bfc807" x="357.674957" y="214.027823" style="stroke: #000000; stroke-width: 0.8"/>
      </g>
     </g>
     <g id="text_63">
      <!-- 0.4 -->
      <g transform="translate(343.944957 216.533057) scale(0.07 -0.07)">
       <use xlink:href="#ArialMT-30"/>
       <use xlink:href="#ArialMT-2e" x="55.615234"/>
       <use xlink:href="#ArialMT-34" x="83.398438"/>
      </g>
     </g>
    </g>
    <g id="ytick_4">
     <g id="line2d_44">
      <g>
       <use xlink:href="#me9c5bfc807" x="357.674957" y="187.150725" style="stroke: #000000; stroke-width: 0.8"/>
      </g>
     </g>
     <g id="text_64">
      <!-- 0.6 -->
      <g transform="translate(343.944957 189.65596) scale(0.07 -0.07)">
       <use xlink:href="#ArialMT-30"/>
       <use xlink:href="#ArialMT-2e" x="55.615234"/>
       <use xlink:href="#ArialMT-36" x="83.398438"/>
      </g>
     </g>
    </g>
    <g id="ytick_5">
     <g id="line2d_45">
      <g>
       <use xlink:href="#me9c5bfc807" x="357.674957" y="160.273628" style="stroke: #000000; stroke-width: 0.8"/>
      </g>
     </g>
     <g id="text_65">
      <!-- 0.8 -->
      <g transform="translate(343.944957 162.778862) scale(0.07 -0.07)">
       <use xlink:href="#ArialMT-30"/>
       <use xlink:href="#ArialMT-2e" x="55.615234"/>
       <use xlink:href="#ArialMT-38" x="83.398438"/>
      </g>
     </g>
    </g>
    <g id="ytick_6">
     <g id="line2d_46">
      <g>
       <use xlink:href="#me9c5bfc807" x="357.674957" y="133.396531" style="stroke: #000000; stroke-width: 0.8"/>
      </g>
     </g>
     <g id="text_66">
      <!-- 1.0 -->
      <g transform="translate(343.944957 135.901765) scale(0.07 -0.07)">
       <use xlink:href="#ArialMT-31"/>
       <use xlink:href="#ArialMT-2e" x="55.615234"/>
       <use xlink:href="#ArialMT-30" x="83.398438"/>
      </g>
     </g>
    </g>
    <g id="ytick_7">
     <g id="line2d_47">
      <g>
       <use xlink:href="#me9c5bfc807" x="357.674957" y="106.519433" style="stroke: #000000; stroke-width: 0.8"/>
      </g>
     </g>
     <g id="text_67">
      <!-- 1.2 -->
      <g transform="translate(343.944957 109.024668) scale(0.07 -0.07)">
       <use xlink:href="#ArialMT-31"/>
       <use xlink:href="#ArialMT-2e" x="55.615234"/>
       <use xlink:href="#ArialMT-32" x="83.398438"/>
      </g>
     </g>
    </g>
    <g id="ytick_8">
     <g id="line2d_48">
      <g>
       <use xlink:href="#me9c5bfc807" x="357.674957" y="79.642336" style="stroke: #000000; stroke-width: 0.8"/>
      </g>
     </g>
     <g id="text_68">
      <!-- 1.4 -->
      <g transform="translate(343.944957 82.14757) scale(0.07 -0.07)">
       <use xlink:href="#ArialMT-31"/>
       <use xlink:href="#ArialMT-2e" x="55.615234"/>
       <use xlink:href="#ArialMT-34" x="83.398438"/>
      </g>
     </g>
    </g>
    <g id="ytick_9">
     <g id="line2d_49">
      <g>
       <use xlink:href="#me9c5bfc807" x="357.674957" y="52.765238" style="stroke: #000000; stroke-width: 0.8"/>
      </g>
     </g>
     <g id="text_69">
      <!-- 1.6 -->
      <g transform="translate(343.944957 55.270473) scale(0.07 -0.07)">
       <use xlink:href="#ArialMT-31"/>
       <use xlink:href="#ArialMT-2e" x="55.615234"/>
       <use xlink:href="#ArialMT-36" x="83.398438"/>
      </g>
     </g>
    </g>
    <g id="text_70">
     <!-- Density -->
     <g transform="translate(337.261207 172.179917) rotate(-90) scale(0.08 -0.08)">
      <defs>
       <path id="ArialMT-44" d="M 494 0 
L 494 4581 
L 2072 4581 
Q 2606 4581 2888 4516 
Q 3281 4425 3559 4188 
Q 3922 3881 4101 3404 
Q 4281 2928 4281 2316 
Q 4281 1794 4159 1391 
Q 4038 988 3847 723 
Q 3656 459 3429 307 
Q 3203 156 2883 78 
Q 2563 0 2147 0 
L 494 0 
z
M 1100 541 
L 2078 541 
Q 2531 541 2789 625 
Q 3047 709 3200 863 
Q 3416 1078 3536 1442 
Q 3656 1806 3656 2325 
Q 3656 3044 3420 3430 
Q 3184 3816 2847 3947 
Q 2603 4041 2063 4041 
L 1100 4041 
L 1100 541 
z
" transform="scale(0.015625)"/>
      </defs>
      <use xlink:href="#ArialMT-44"/>
      <use xlink:href="#ArialMT-65" x="72.216797"/>
      <use xlink:href="#ArialMT-6e" x="127.832031"/>
      <use xlink:href="#ArialMT-73" x="183.447266"/>
      <use xlink:href="#ArialMT-69" x="233.447266"/>
      <use xlink:href="#ArialMT-74" x="255.664062"/>
      <use xlink:href="#ArialMT-79" x="283.447266"/>
     </g>
    </g>
   </g>
   <g id="line2d_50">
    <path d="M 312.629513 267.46065 
L 315.885329 267.141694 
L 319.141145 266.559325 
L 321.311689 265.943802 
L 323.482233 265.06954 
L 325.652777 263.853114 
L 327.823321 262.195254 
L 328.908593 261.16573 
L 329.993865 259.982217 
L 331.079137 258.628783 
L 332.164409 257.08914 
L 333.249681 255.346875 
L 334.334953 253.385731 
L 336.505497 248.74444 
L 338.676041 243.050956 
L 340.846585 236.21652 
L 343.017129 228.191123 
L 345.187673 218.97635 
L 347.358217 208.636299 
L 349.52876 197.305 
L 352.784576 178.919902 
L 359.296208 141.051109 
L 361.466752 129.482252 
L 363.637296 119.076317 
L 365.80784 110.160385 
L 366.893112 106.34442 
L 367.978384 102.990091 
L 369.063656 100.11501 
L 370.148928 97.730276 
L 371.2342 95.840283 
L 372.319472 94.442656 
L 373.404744 93.528333 
L 374.490016 93.08178 
L 375.575288 93.081335 
L 376.66056 93.499683 
L 377.745832 94.304425 
L 378.831104 95.458763 
L 379.916376 96.922243 
L 381.001648 98.651579 
L 383.172192 102.72564 
L 386.428008 109.681376 
L 389.683824 116.60837 
L 391.854368 120.725975 
L 394.024912 124.200595 
L 395.110184 125.65594 
L 396.195456 126.911534 
L 397.280728 127.964653 
L 398.365999 128.8172 
L 399.451271 129.475379 
L 400.536543 129.94931 
L 401.621815 130.252563 
L 402.707087 130.401662 
L 403.792359 130.415544 
L 405.962903 130.122146 
L 408.133447 129.551094 
L 412.474535 128.295142 
L 414.645079 127.929813 
L 416.815623 127.905599 
L 417.900895 128.048017 
L 418.986167 128.302954 
L 420.071439 128.674639 
L 422.241983 129.774162 
L 424.412527 131.338294 
L 426.583071 133.33053 
L 428.753615 135.692701 
L 430.924159 138.352235 
L 434.179975 142.724985 
L 447.203238 160.803596 
L 454.800142 170.887554 
L 458.055958 175.578034 
L 461.311774 180.750911 
L 464.56759 186.53435 
L 467.823406 192.978825 
L 471.079222 200.043346 
L 475.42031 210.190019 
L 484.102486 230.934531 
L 487.358302 238.072337 
L 489.528846 242.451214 
L 491.69939 246.469885 
L 493.869934 250.096003 
L 496.040477 253.312161 
L 498.211021 256.115428 
L 500.432685 258.565756 
L 500.432685 258.565756 
" clip-path="url(#pe0f482574e)" style="fill: none; stroke: #e69f00; stroke-opacity: 0.8; stroke-width: 1.5; stroke-linecap: square"/>
   </g>
   <g id="line2d_51">
    <path d="M 314.811552 267.496 
L 318.059083 267.219667 
L 321.306614 266.729927 
L 323.471634 266.227901 
L 325.636654 265.536036 
L 327.801675 264.606177 
L 329.966695 263.38778 
L 332.131716 261.83185 
L 334.296736 259.896116 
L 336.461757 257.551096 
L 338.626777 254.786438 
L 340.791798 251.616691 
L 342.956818 248.085474 
L 346.204349 242.281319 
L 352.699411 230.30971 
L 354.864431 226.712851 
L 357.029451 223.519665 
L 359.194472 220.811342 
L 361.359492 218.624245 
L 363.524513 216.943629 
L 365.689533 215.702838 
L 367.854554 214.788277 
L 374.349615 212.403873 
L 376.514636 211.15119 
L 378.679656 209.415882 
L 380.844677 207.096477 
L 383.009697 204.138176 
L 385.174718 200.535469 
L 387.339738 196.329469 
L 389.504759 191.600374 
L 392.752289 183.765567 
L 397.08233 172.561304 
L 412.237474 132.462048 
L 415.485004 123.009991 
L 418.732535 112.954408 
L 428.475127 82.138345 
L 430.640148 76.206876 
L 432.805168 71.010193 
L 434.970189 66.707428 
L 436.052699 64.933037 
L 437.135209 63.428266 
L 438.21772 62.204316 
L 439.30023 61.270418 
L 440.38274 60.633919 
L 441.46525 60.300368 
L 442.54776 60.273609 
L 443.630271 60.555871 
L 444.712781 61.14783 
L 445.795291 62.048656 
L 446.877801 63.256033 
L 447.960312 64.766155 
L 449.042822 66.573703 
L 450.125332 68.67181 
L 451.207842 71.052017 
L 453.372863 76.616758 
L 455.537883 83.167597 
L 457.702904 90.578966 
L 459.867924 98.703515 
L 463.115455 111.869622 
L 469.610516 139.705374 
L 475.023068 162.382356 
L 479.353109 179.45962 
L 483.68315 195.505987 
L 488.013191 210.514184 
L 491.260721 220.986803 
L 494.508252 230.616013 
L 496.673273 236.471175 
L 498.838293 241.811052 
L 500.432685 245.370662 
L 500.432685 245.370662 
" clip-path="url(#pe0f482574e)" style="fill: none; stroke: #0072b2; stroke-opacity: 0.8; stroke-width: 1.5; stroke-linecap: square"/>
   </g>
   <g id="line2d_52">
    <path d="M 308.80772 267.219511 
L 312.133367 266.748334 
L 314.350465 266.265368 
L 316.567564 265.595904 
L 318.784662 264.68617 
L 321.00176 263.474381 
L 323.218858 261.892391 
L 325.435956 259.868547 
L 327.653055 257.33186 
L 329.870153 254.217411 
L 332.087251 250.472754 
L 334.304349 246.064862 
L 336.521447 240.986947 
L 338.738545 235.264373 
L 340.955644 228.958803 
L 344.281291 218.635121 
L 353.149684 189.907209 
L 355.366782 183.500939 
L 357.58388 177.776556 
L 359.800978 172.874923 
L 360.909527 170.765318 
L 362.018076 168.894789 
L 363.126625 167.2682 
L 364.235175 165.887322 
L 365.343724 164.750881 
L 366.452273 163.854674 
L 367.560822 163.191725 
L 368.669371 162.752506 
L 369.77792 162.525181 
L 370.886469 162.495888 
L 371.995018 162.649037 
L 373.103567 162.967616 
L 374.212116 163.433506 
L 376.429215 164.730961 
L 378.646313 166.385173 
L 386.406156 172.775551 
L 388.623255 174.199266 
L 390.840353 175.22421 
L 391.948902 175.555723 
L 393.057451 175.751594 
L 394.166 175.801741 
L 395.274549 175.6971 
L 396.383098 175.429704 
L 397.491647 174.992776 
L 398.600196 174.380834 
L 399.708745 173.589802 
L 400.817295 172.617118 
L 401.925844 171.461843 
L 403.034393 170.124757 
L 405.251491 166.917303 
L 407.468589 163.037731 
L 409.685687 158.558786 
L 411.902785 153.581137 
L 415.228433 145.45674 
L 422.988276 126.008879 
L 425.205375 120.979017 
L 427.422473 116.406601 
L 429.639571 112.378647 
L 431.856669 108.958178 
L 434.073767 106.185776 
L 435.182316 105.049947 
L 436.290865 104.082946 
L 437.399415 103.285227 
L 438.507964 102.656647 
L 439.616513 102.196621 
L 440.725062 101.904273 
L 441.833611 101.778568 
L 442.94216 101.818428 
L 444.050709 102.022836 
L 445.159258 102.390908 
L 446.267807 102.921954 
L 447.376356 103.61551 
L 448.484905 104.471348 
L 449.593455 105.489467 
L 450.702004 106.670063 
L 452.919102 109.520138 
L 455.1362 113.02482 
L 457.353298 117.185901 
L 459.570396 122.000521 
L 461.787495 127.457786 
L 464.004593 133.535547 
L 466.221691 140.197675 
L 469.547338 151.168053 
L 472.872985 163.08548 
L 478.415731 184.13671 
L 483.958476 205.058453 
L 487.284124 216.761614 
L 489.501222 223.990229 
L 491.71832 230.666047 
L 493.935418 236.732144 
L 496.152516 242.154214 
L 498.369614 246.92042 
L 500.432685 250.764742 
L 500.432685 250.764742 
" clip-path="url(#pe0f482574e)" style="fill: none; stroke: #009e73; stroke-opacity: 0.8; stroke-width: 1.5; stroke-linecap: square"/>
   </g>
   <g id="line2d_53">
    <path d="M 319.914149 267.341133 
L 323.007832 266.859754 
L 325.070288 266.320226 
L 327.132744 265.52221 
L 329.195199 264.374084 
L 331.257655 262.767485 
L 332.288883 261.754695 
L 333.320111 260.581149 
L 334.351339 259.230849 
L 335.382567 257.688084 
L 336.413794 255.937839 
L 338.47625 251.761118 
L 340.538706 246.612587 
L 342.601162 240.446633 
L 344.663617 233.275147 
L 346.726073 225.178999 
L 349.819757 211.660893 
L 357.038352 178.505467 
L 359.100807 170.106397 
L 361.163263 162.759571 
L 363.225719 156.692437 
L 364.256947 154.187318 
L 365.288175 152.048995 
L 366.319402 150.280989 
L 367.35063 148.881028 
L 368.381858 147.841277 
L 369.413086 147.148695 
L 370.444314 146.785485 
L 371.475542 146.72965 
L 372.50677 146.955594 
L 373.537998 147.434773 
L 374.569225 148.136375 
L 375.600453 149.027989 
L 377.662909 151.247559 
L 380.756593 155.1702 
L 383.850276 159.070151 
L 385.912732 161.31427 
L 387.975188 163.091298 
L 389.006415 163.769118 
L 390.037643 164.292759 
L 391.068871 164.655023 
L 392.100099 164.851003 
L 393.131327 164.877897 
L 394.162555 164.734802 
L 395.193783 164.422494 
L 396.225011 163.943205 
L 397.256238 163.300394 
L 398.287466 162.498536 
L 400.349922 160.439438 
L 402.412378 157.814865 
L 404.474833 154.679787 
L 406.537289 151.093107 
L 408.599745 147.117888 
L 411.693428 140.580719 
L 416.849568 128.874359 
L 420.974479 119.749791 
L 423.036935 115.600002 
L 425.099391 111.877598 
L 427.161846 108.674342 
L 429.224302 106.054493 
L 431.286758 104.050925 
L 432.317986 103.282028 
L 433.349214 102.665896 
L 434.380441 102.198919 
L 435.411669 101.87646 
L 436.442897 101.693197 
L 437.474125 101.643473 
L 438.505353 101.721643 
L 439.536581 101.922399 
L 441.599036 102.673789 
L 443.661492 103.871463 
L 445.723948 105.507001 
L 447.786404 107.590008 
L 449.848859 110.144431 
L 451.911315 113.20199 
L 453.973771 116.794146 
L 456.036227 120.9442 
L 458.098682 125.660879 
L 460.161138 130.934391 
L 462.223594 136.735385 
L 465.317277 146.318703 
L 468.410961 156.766274 
L 472.535872 171.614027 
L 484.910607 216.960549 
L 488.00429 227.168211 
L 490.066746 233.441928 
L 492.129202 239.206303 
L 494.191658 244.404288 
L 496.254113 248.997878 
L 498.316569 252.971339 
L 500.432685 256.408011 
L 500.432685 256.408011 
" clip-path="url(#pe0f482574e)" style="fill: none; stroke-dasharray: 7.4,3.2; stroke-dashoffset: 0; stroke: #000000; stroke-width: 2"/>
   </g>
   <g id="text_71">
    <!-- g -->
    <g transform="translate(342.11183 17.220937) scale(0.14 -0.14)">
     <defs>
      <path id="Arial-BoldMT-67" d="M 378 -219 
L 1381 -341 
Q 1406 -516 1497 -581 
Q 1622 -675 1891 -675 
Q 2234 -675 2406 -572 
Q 2522 -503 2581 -350 
Q 2622 -241 2622 53 
L 2622 538 
Q 2228 0 1628 0 
Q 959 0 569 566 
Q 263 1013 263 1678 
Q 263 2513 664 2953 
Q 1066 3394 1663 3394 
Q 2278 3394 2678 2853 
L 2678 3319 
L 3500 3319 
L 3500 341 
Q 3500 -247 3403 -537 
Q 3306 -828 3131 -993 
Q 2956 -1159 2664 -1253 
Q 2372 -1347 1925 -1347 
Q 1081 -1347 728 -1058 
Q 375 -769 375 -325 
Q 375 -281 378 -219 
z
M 1163 1728 
Q 1163 1200 1367 954 
Q 1572 709 1872 709 
Q 2194 709 2416 961 
Q 2638 1213 2638 1706 
Q 2638 2222 2425 2472 
Q 2213 2722 1888 2722 
Q 1572 2722 1367 2476 
Q 1163 2231 1163 1728 
z
" transform="scale(0.015625)"/>
     </defs>
     <use xlink:href="#Arial-BoldMT-67"/>
    </g>
   </g>
   <g id="text_72">
    <!-- Cats usage: 54% (n=70) -->
    <g transform="translate(384.670362 218.044014) scale(0.065 -0.065)">
     <use xlink:href="#ArialMT-43"/>
     <use xlink:href="#ArialMT-61" x="72.216797"/>
     <use xlink:href="#ArialMT-74" x="127.832031"/>
     <use xlink:href="#ArialMT-73" x="155.615234"/>
     <use xlink:href="#ArialMT-20" x="205.615234"/>
     <use xlink:href="#ArialMT-75" x="233.398438"/>
     <use xlink:href="#ArialMT-73" x="289.013672"/>
     <use xlink:href="#ArialMT-61" x="339.013672"/>
     <use xlink:href="#ArialMT-67" x="394.628906"/>
     <use xlink:href="#ArialMT-65" x="450.244141"/>
     <use xlink:href="#ArialMT-3a" x="505.859375"/>
     <use xlink:href="#ArialMT-20" x="533.642578"/>
     <use xlink:href="#ArialMT-35" x="561.425781"/>
     <use xlink:href="#ArialMT-34" x="617.041016"/>
     <use xlink:href="#ArialMT-25" x="672.65625"/>
     <use xlink:href="#ArialMT-20" x="761.572266"/>
     <use xlink:href="#ArialMT-28" x="789.355469"/>
     <use xlink:href="#ArialMT-6e" x="822.65625"/>
     <use xlink:href="#ArialMT-3d" x="878.271484"/>
     <use xlink:href="#ArialMT-37" x="936.669922"/>
     <use xlink:href="#ArialMT-30" x="992.285156"/>
     <use xlink:href="#ArialMT-29" x="1047.900391"/>
    </g>
   </g>
   <g id="text_73">
    <!-- Oats usage: 50% (n=65) -->
    <g transform="translate(384.3088 228.942037) scale(0.065 -0.065)">
     <use xlink:href="#ArialMT-4f"/>
     <use xlink:href="#ArialMT-61" x="77.783203"/>
     <use xlink:href="#ArialMT-74" x="133.398438"/>
     <use xlink:href="#ArialMT-73" x="161.181641"/>
     <use xlink:href="#ArialMT-20" x="211.181641"/>
     <use xlink:href="#ArialMT-75" x="238.964844"/>
     <use xlink:href="#ArialMT-73" x="294.580078"/>
     <use xlink:href="#ArialMT-61" x="344.580078"/>
     <use xlink:href="#ArialMT-67" x="400.195312"/>
     <use xlink:href="#ArialMT-65" x="455.810547"/>
     <use xlink:href="#ArialMT-3a" x="511.425781"/>
     <use xlink:href="#ArialMT-20" x="539.208984"/>
     <use xlink:href="#ArialMT-35" x="566.992188"/>
     <use xlink:href="#ArialMT-30" x="622.607422"/>
     <use xlink:href="#ArialMT-25" x="678.222656"/>
     <use xlink:href="#ArialMT-20" x="767.138672"/>
     <use xlink:href="#ArialMT-28" x="794.921875"/>
     <use xlink:href="#ArialMT-6e" x="828.222656"/>
     <use xlink:href="#ArialMT-3d" x="883.837891"/>
     <use xlink:href="#ArialMT-36" x="942.236328"/>
     <use xlink:href="#ArialMT-35" x="997.851562"/>
     <use xlink:href="#ArialMT-29" x="1053.466797"/>
    </g>
   </g>
   <g id="text_74">
    <!-- Politics usage: 58% (n=73) -->
    <g transform="translate(377.446222 239.831934) scale(0.065 -0.065)">
     <use xlink:href="#ArialMT-50"/>
     <use xlink:href="#ArialMT-6f" x="66.699219"/>
     <use xlink:href="#ArialMT-6c" x="122.314453"/>
     <use xlink:href="#ArialMT-69" x="144.53125"/>
     <use xlink:href="#ArialMT-74" x="166.748047"/>
     <use xlink:href="#ArialMT-69" x="194.53125"/>
     <use xlink:href="#ArialMT-63" x="216.748047"/>
     <use xlink:href="#ArialMT-73" x="266.748047"/>
     <use xlink:href="#ArialMT-20" x="316.748047"/>
     <use xlink:href="#ArialMT-75" x="344.53125"/>
     <use xlink:href="#ArialMT-73" x="400.146484"/>
     <use xlink:href="#ArialMT-61" x="450.146484"/>
     <use xlink:href="#ArialMT-67" x="505.761719"/>
     <use xlink:href="#ArialMT-65" x="561.376953"/>
     <use xlink:href="#ArialMT-3a" x="616.992188"/>
     <use xlink:href="#ArialMT-20" x="644.775391"/>
     <use xlink:href="#ArialMT-35" x="672.558594"/>
     <use xlink:href="#ArialMT-38" x="728.173828"/>
     <use xlink:href="#ArialMT-25" x="783.789062"/>
     <use xlink:href="#ArialMT-20" x="872.705078"/>
     <use xlink:href="#ArialMT-28" x="900.488281"/>
     <use xlink:href="#ArialMT-6e" x="933.789062"/>
     <use xlink:href="#ArialMT-3d" x="989.404297"/>
     <use xlink:href="#ArialMT-37" x="1047.802734"/>
     <use xlink:href="#ArialMT-33" x="1103.417969"/>
     <use xlink:href="#ArialMT-29" x="1159.033203"/>
    </g>
   </g>
   <g id="text_75">
    <!-- Jaccard Similarity -->
    <g transform="translate(385.306555 39.902817) scale(0.095 -0.095)">
     <use xlink:href="#ArialMT-4a"/>
     <use xlink:href="#ArialMT-61" x="50"/>
     <use xlink:href="#ArialMT-63" x="105.615234"/>
     <use xlink:href="#ArialMT-63" x="155.615234"/>
     <use xlink:href="#ArialMT-61" x="205.615234"/>
     <use xlink:href="#ArialMT-72" x="261.230469"/>
     <use xlink:href="#ArialMT-64" x="294.53125"/>
     <use xlink:href="#ArialMT-20" x="350.146484"/>
     <use xlink:href="#ArialMT-53" x="377.929688"/>
     <use xlink:href="#ArialMT-69" x="444.628906"/>
     <use xlink:href="#ArialMT-6d" x="466.845703"/>
     <use xlink:href="#ArialMT-69" x="550.146484"/>
     <use xlink:href="#ArialMT-6c" x="572.363281"/>
     <use xlink:href="#ArialMT-61" x="594.580078"/>
     <use xlink:href="#ArialMT-72" x="650.195312"/>
     <use xlink:href="#ArialMT-69" x="683.496094"/>
     <use xlink:href="#ArialMT-74" x="705.712891"/>
     <use xlink:href="#ArialMT-79" x="733.496094"/>
    </g>
   </g>
   <g id="legend_1">
    <g id="line2d_54">
     <path d="M 261.281676 315.860742 
L 268.281676 315.860742 
L 275.281676 315.860742 
" style="fill: none; stroke: #e69f00; stroke-opacity: 0.8; stroke-width: 1.5; stroke-linecap: square"/>
    </g>
    <g id="text_76">
     <!-- Oats -->
     <g transform="translate(278.781676 318.310742) scale(0.07 -0.07)">
      <use xlink:href="#ArialMT-4f"/>
      <use xlink:href="#ArialMT-61" x="77.783203"/>
      <use xlink:href="#ArialMT-74" x="133.398438"/>
      <use xlink:href="#ArialMT-73" x="161.181641"/>
     </g>
    </g>
    <g id="line2d_55">
     <path d="M 307.563707 315.860742 
L 314.563707 315.860742 
L 321.563707 315.860742 
" style="fill: none; stroke: #0072b2; stroke-opacity: 0.8; stroke-width: 1.5; stroke-linecap: square"/>
    </g>
    <g id="text_77">
     <!-- Cats -->
     <g transform="translate(325.063707 318.310742) scale(0.07 -0.07)">
      <use xlink:href="#ArialMT-43"/>
      <use xlink:href="#ArialMT-61" x="72.216797"/>
      <use xlink:href="#ArialMT-74" x="127.832031"/>
      <use xlink:href="#ArialMT-73" x="155.615234"/>
     </g>
    </g>
    <g id="line2d_56">
     <path d="M 353.456364 315.860742 
L 360.456364 315.860742 
L 367.456364 315.860742 
" style="fill: none; stroke: #009e73; stroke-opacity: 0.8; stroke-width: 1.5; stroke-linecap: square"/>
    </g>
    <g id="text_78">
     <!-- Politics -->
     <g transform="translate(370.956364 318.310742) scale(0.07 -0.07)">
      <use xlink:href="#ArialMT-50"/>
      <use xlink:href="#ArialMT-6f" x="66.699219"/>
      <use xlink:href="#ArialMT-6c" x="122.314453"/>
      <use xlink:href="#ArialMT-69" x="144.53125"/>
      <use xlink:href="#ArialMT-74" x="166.748047"/>
      <use xlink:href="#ArialMT-69" x="194.53125"/>
      <use xlink:href="#ArialMT-63" x="216.748047"/>
      <use xlink:href="#ArialMT-73" x="266.748047"/>
     </g>
    </g>
    <g id="line2d_57">
     <path d="M 407.128864 315.860742 
L 414.128864 315.860742 
L 421.128864 315.860742 
" style="fill: none; stroke-dasharray: 7.4,3.2; stroke-dashoffset: 0; stroke: #000000; stroke-width: 2"/>
    </g>
    <g id="text_79">
     <!-- All Topics -->
     <g transform="translate(424.628864 318.310742) scale(0.07 -0.07)">
      <use xlink:href="#ArialMT-41"/>
      <use xlink:href="#ArialMT-6c" x="66.699219"/>
      <use xlink:href="#ArialMT-6c" x="88.916016"/>
      <use xlink:href="#ArialMT-20" x="111.132812"/>
      <use xlink:href="#ArialMT-54" x="137.166016"/>
      <use xlink:href="#ArialMT-6f" x="187.125"/>
      <use xlink:href="#ArialMT-70" x="242.740234"/>
      <use xlink:href="#ArialMT-69" x="298.355469"/>
      <use xlink:href="#ArialMT-63" x="320.572266"/>
      <use xlink:href="#ArialMT-73" x="370.572266"/>
     </g>
    </g>
   </g>
  </g>
 </g>
 <defs>
  <clipPath id="p5032843753">
   <rect x="92.303685" y="49.902817" width="99.763636" height="217.8792"/>
  </clipPath>
  <clipPath id="pa689dbdd9b">
   <rect x="224.989321" y="49.902817" width="99.763636" height="217.8792"/>
  </clipPath>
  <clipPath id="pe0f482574e">
   <rect x="357.674957" y="49.902817" width="129.692727" height="217.8792"/>
  </clipPath>
 </defs>
</svg>
